<?xml version='1.0' encoding='utf-8'?>
<svg xmlns="http://www.w3.org/2000/svg" fill="none" viewBox="0 0 1080 1080" width="1080" height="1080"><defs><clipPath id="assetClipPath_Yy3s-UzJ"><path d="m0 0 h 1159.8 v 219.2 h -1159.8 v -219.2 z" id="path_OL2RYAw0" fill="#ffffff" /></clipPath><clipPath id="assetClipPath_jRZjfybH"><path d="m0 0 h 1761 v 1461.1 h -1761 v -1461.1 z" id="path_ob-2GvxR" fill="#ffffff" /></clipPath><clipPath id="assetClipPath_8DDVGEeO"><path d="m0 0 h 787.1 v 673.5 h -787.1 v -673.5 z" id="path_dC-hRVN5" fill="#ffffff" /></clipPath><clipPath id="assetClipPath_MY3aqMO-"><path d="m0 0 h 577.64 v 559.895 h -577.64 v -559.895 z" id="path_QqW_FRTV" fill="#ffffff" /></clipPath></defs><g transform="translate(273 918)" data-asset-index="0"><g clip-path="url(#assetClipPath_Yy3s-UzJ)" transform="scale(0.4690463873081566 0.46989051094890516)" data-asset-index="0"><path d="m1146.1 217.6-566.2-40.4-566.2 40.4c-9.6.7-16.5-9.1-12.6-18l52.4-178c5.8-13 18.7-21.3 32.9-21.2l495.4 3.6 491.7-3.6c14.2-.1 27.1 8.2 32.9 21.2l52.3 178.1c3.9 8.8-3 18.6-12.6 17.9z" fill="#219DA7" id="O3JhI3bxZgt1VNI5md5dJ" /><circle cx="579.9" cy="176.3" fill="#219DA7" r="42.8" id="pPTVnS1EumhT1Ko9WnCzE" /><path d="m579.9 162.3c82.8-56.4 529.8 33.5 529.8 33.5l-49.5-131.8h-478.4s-1.9 98-1.9 98.3z" fill="#FFFFFF" id="A4ptHkvPGWn7j2uo-A26S" /><path d="m1109.7 199.8c-.3 0-.5 0-.8-.1-1.1-.2-113-22.6-233.6-37.9-158.8-20.1-260.1-18.8-293.2 3.7-1.2.8-2.8.9-4.1.2s-2.1-2.1-2.1-3.5c0-.3 1.2-61.8 1.9-98.4 0-2.2 1.8-3.9 4-3.9h478.4c1.7 0 3.2 1 3.7 2.6l49.5 131.9c.5 1.4.2 2.9-.7 4-.7.9-1.8 1.4-3 1.4zm-419-60.1c48.4 0 110.3 4.8 185.7 14.3 103.5 13.1 200.6 31.4 227.1 36.6l-46-122.6h-471.8c-.3 14.9-1.3 67.9-1.7 87.3 20.5-10.4 56.1-15.6 106.7-15.6z" fill="#66ADED" id="nWm2w5Q0itg1vjfoa9JNm" /><path d="m579.9 162.3c27.6-39.3 100-88.8 541 4.9l-53.5-163.2h-485.6z" fill="#FFFFFF" id="p9NSXarKyFkmzlmj4Yixn" /><path d="m1120.9 171.3c-.3 0-.6 0-.8-.1-193.4-41.1-336.2-58.7-424.4-52.3-74.6 5.4-98.7 26.2-112.5 45.7-1 1.4-2.8 2-4.5 1.5s-2.8-2.1-2.8-3.9l1.9-158.2c0-2.2 1.8-4 4-4h485.5c1.7 0 3.3 1.1 3.8 2.8l53.5 163.3c.4 1.4.1 2.9-.8 3.9-.7.8-1.8 1.3-2.9 1.3zm-387-61.7c88.4 0 216.3 17.5 381.1 52.3l-50.5-153.9h-478.7l-1.8 142.7c15.8-17.4 44.6-35 111-39.8 12-.9 25-1.3 38.9-1.3z" fill="#66ADED" id="lOxuQAiN7jJADanmIjyAq" /><path d="m579.4 162.3c-82.8-56.4-529.8 33.5-529.8 33.5l49.5-131.8h478.4s1.9 98 1.9 98.3z" fill="#FFFFFF" id="gGzqpC3GR5c-n3XurI4li" /><path d="m49.6 199.8c-1.2 0-2.3-.5-3-1.4-.9-1.1-1.2-2.6-.7-4l49.5-131.8c.6-1.6 2.1-2.6 3.7-2.6h478.4c2.2 0 4 1.7 4 3.9.7 36.6 1.9 98.1 1.9 98.4 0 1.5-.8 2.8-2.1 3.5s-2.9.6-4.1-.2c-33-22.5-134.4-23.8-293.2-3.7-120.6 15.2-232.5 37.7-233.6 37.9-.3-0-.5-0-.8-0zm52.3-131.8-46 122.6c26.5-5.1 123.6-23.5 227.1-36.6 154.1-19.5 252.3-19 292.3 1.3-.4-19.3-1.4-72.4-1.7-87.3z" fill="#66ADED" id="d7D_ehzbbXRK7fTvXjAMB" /><path d="m579.4 162.3c-53.8-83.1-171.9-85-536.5-4.1l51.9-154.2h489.4z" fill="#FFFFFF" id="djyD2VRylX7Qn6PbbRJ2v" /><path d="m579.4 166.3c-1.3 0-2.6-.7-3.4-1.8-52.9-81.7-172.3-82.2-532.3-2.3-1.4.3-2.9-.2-3.8-1.2s-1.3-2.6-.8-3.9l52-154.4c.5-1.6 2-2.7 3.7-2.7h489.4c1.1 0 2.1.4 2.9 1.2s1.2 1.8 1.1 2.9l-4.8 158.3c-.1 1.8-1.2 3.3-2.9 3.7-.3.2-.7.2-1.1.2zm-481.7-158.3-48.7 144.8c187.3-41.4 300.8-58.7 378.8-58 73.4.7 118.5 17.4 148 55.5l4.3-142.3z" fill="#66ADED" id="GX6H8Yn-YHF-2fNoS2Eh3" /></g></g><g transform="translate(107 271)" data-asset-index="1"><g clip-path="url(#assetClipPath_jRZjfybH)" transform="scale(0.4673480976717774 0.46814044213263983)" data-asset-index="1"><path d="m399.5 1094.6c-117-56.4-339.9-183-392.3-121.1-42 61.1 100.9 149.7 392.3 121.1z" fill="#087F6C" id="WCx-RaBDuX99yH4gmLW5q" /><path d="m1711.2 1132.5c-73.8-21.8-264.7-128.5-297-1-20-45.7 65 26.8 24.5 70.4 4.8 44.6 6.2 182 3.4 182.1h-1001.7l45.7-99 54.8-104.6.4-1.9s-.5-.3-1.6-1c-3.6-2.2-13.2-7.9-27.4-16.1-5.9-3.4-12.5-7.2-19.8-11.4-10.4-5.9-22.2-12.6-35.1-19.7-1.4-.8-2.9-1.6-4.3-2.4-10.5-5.8-21.7-11.9-33.4-18.3-2.9-1.6-5.8-3.2-8.7-4.7-6.9-3.7-13.9-7.5-21.1-11.3-3.2-1.7-6.4-3.4-9.7-5.1-55.7-29.2-118.8-60.3-177.4-84.5h-.1c-89.9-37.1-169.2-57.9-195-31-.1.1-.1.1-.2.2 5-6.5 138.8-153.6 305.3-287.3 211.2-170.3 387-179.3 477.7-108.5.4.3 6.4.5 7.7 0 49.6-.2 268.5-11.2 268.5-11.2 122.8-64 473.1 111.2 644.5 566.3z" fill="#087F6C" id="LDUrPtXNyzZPqAinJCTA5" /><path d="m1019.1 7.4c-24-2.6-47.9 5.6-64.3 23.3-47.2-63.6-137.3-17.7-131 41.1-83-26.9-137.4 74.6-89.5 124.9 17.6 18.5 50.1 58.6 53.3 99.3 37 3.2 124.2 60.4 124.2 60.4s91-171.8 139.7-207.5c60.7-44.6 21.7-135.5-32.4-141.5z" fill="#046051" id="q7xDv0jhl5JXZ_qVBC7JN" /><path d="m1165.5 350.8c7.3 19.2 2.9 42.7-14.4 60.4-44.9 46-120.4 50.3-120.4 50.3s8.3 42.9 36 104.6c-5.5 15.5-42.2 64.7-112.9 74.7-76.6 10.9-134.6-35.8-155.6-63.4 14.3-27.6 26.7-80 39.1-156.1-39.4 6-109.8-16.5-115.6-70.7-3.3-30.9 20.9-64 53.8-64.1 32-.1 48.4 14.2 79.8 33.1 29.2 17.6 31.6 2.2 37.9-31.2 5.5-29.6 18.8-58.1 30-74.9 25.2-38 86.6-56.7 128.6-64.4 9 30.9 20.1 61.2 33.2 90.7 22.6 51.9 63.4 66.2 80.5 111z" fill="#F1AA9F" id="dLYEt1yA4McajBOwjDXl1" /><path d="m932.4 252-1.5-3c-.4-.9-.8-1.8-1.2-2.8-.7-1.8-1.2-3.7-1.7-5.6-.8-3.8-1.2-7.7-1.1-11.7.2-8.3 2.3-16.4 6.1-23.6 2-3.9 4.5-7.4 7.5-10.6s6.5-5.9 10.3-8.1c3.8-2.1 7.8-3.6 12.1-4.3 4.2-.8 8.4-.7 12.5.3 5.3 1.3 8.5 6.6 7.2 11.9-.2 1-.6 2-1.2 2.8l-1 1.5c-1.9 3.1-3.7 5.3-5.2 7.5-1.6 2.1-2.8 4.2-4.1 6-2.4 3.7-4.5 6.9-6.8 10.5s-4.5 7.7-6.9 12.3l-3.8 7.4c-.6 1.3-1.4 2.6-2.1 4-1.5 3.2-3.9 5.9-6.8 7.8-1.5 1-3.3 1.7-5.1 1.9-2.5.2-4.9-.9-6.5-2.8-.1-.4-.4-.9-.7-1.4z" fill="#046051" id="NO6XFePOcj-jJQLVpMv9Y" /><path d="m953.1 265.9c8.5-4.2 29-13.9 46.3-29.2 2.4-2.1 6.1-1.9 8.3.5v.1c5.5 6.3 12.6 18.1-.5 27-16.2 11-46.4 12.8-54.6 6.7-1.3-1-1.5-2.9-.5-4.2.3-.4.6-.7 1-.9z" fill="#046051" id="DFdrvpdl8lTP7gQAPEIjm" /><path d="m1065.2 212.1c-8.5 4.1-15.3 5.6-32.3 9-3.2.6-5.3 3.7-4.7 6.9 1.6 8.2 8.1 14.9 21.3 12.1 14.7-3.1 20-16.5 20-25.3 0-1.7-1.4-3-3-3-.5 0-.9.1-1.3.3z" fill="#08594C" id="HhafDE3mT81XE3RQ9MmZ" /><path d="m867.2 412.6c-1-1.6-3.1-2.2-4.7-1.2-9 5.3-17.7 8.4-25.4 10-.3 2.4-.6 4.8-.9 7.3 10.5-2 20.5-5.9 29.7-11.4 1.7-1 2.2-3.1 1.3-4.7z" fill="#983C80" id="GanKpyUnFVjexngNypSc4" /><path d="m1026 163.7c-2.4 3.1-4.2 6.6-5.4 10.3-1.2 3.6-1.7 7.4-1.3 11.2.5 4.9 4.8 8.4 9.7 8 .9-.1 1.8-.3 2.7-.7l1.5-.7c3-1.3 5.2-2.7 7.4-3.7 2.1-1.1 4.1-2 5.9-2.9 3.6-1.7 6.7-3.2 10.2-4.7 1.4-.6 2.9-1.2 4.4-1.8-3.3-9.7-6.4-19.6-9.3-29.4-2.9.5-5.8 1.1-8.8 1.7-3 1.2-5.8 2.7-8.4 4.6-3.3 2.1-6.2 4.9-8.6 8.1z" fill="#046051" id="ExCDd4EqdP1QaouKhrJH" /><path d="m950 443.5c-7.7 8.3 9.1 72.6 89.5 73 2.8 0 5.3-.1 7.6-.3-10.1-30-16.4-54.7-16.4-54.7s-49.8-.6-80.7-18z" fill="#087F6C" id="EC-hRP9RMi_mgGWxcKNz9" /><ellipse cx="950.7" cy="338.1" fill="#E27280" opacity=".52" rx="39.2" ry="39.2" id="pubXepnflo3ouKMpGuGOC" /><path d="m841.1 369.5c1.9-.1 3.3-1.8 3.2-3.7 0-.6-.2-1.2-.6-1.7-33.5-50.5-80.8-33.1-81.3-32.9-1.8.7-2.7 2.7-2 4.5s2.7 2.6 4.4 2c1.7-.7 42.7-15.5 73.1 30.3.8 1 1.9 1.6 3.2 1.5z" fill="#983C80" id="a1-GrelRR4_Tog5FJR5II" /><path d="m1058.6 284.6c.8 0 1.5-.4 2-1 7.1-8.7 9.8-15 8.8-20.4-1.2-6.8-8.2-10.9-16.2-15.6-18.1-10.5-18.2-21.1-18.2-21.2 0-1.5-1.2-2.8-2.7-2.8-1.5-.1-2.8 1.1-2.8 2.6 0 .6-.3 13.8 20.9 26.2 8 4.6 12.9 7.7 13.6 11.8.6 3.6-1.9 8.8-7.7 15.9-1 1.2-.8 2.9.4 3.9.6.5 1.2.7 1.9.6z" fill="#08594C" id="HUl61CMdcS4mOrl6-Ta" /><path d="m462.1 1162.2c-.8 0-1.5-.2-2.2-.7-1.8-1.2-2.4-3.7-1.1-5.5.7-1.1 72.9-110.5 126.5-205.4 1.1-1.9 3.5-2.6 5.4-1.5s2.6 3.5 1.5 5.5c-53.7 95.2-126 204.8-126.8 205.9-.7 1.1-2 1.7-3.3 1.7z" fill="#F9B3AE" id="RNNcfhokCKQ-2gP9nD3A" /><path d="m499.2 1395.3c-149.8 1.5-306.6-1.9-386.5-123.8-66.7-101.7-27.3-234.7 2.6-298.2 20.4 5.2 105 38 139.4 50.9 91.4 34.3 200.8 65.5 211.2 70.2 364.6 30.5 524.6 91.4 644.5 158 126.9 70.5 198 174.2 128.5 156.1 14.3 22.8-4.8 35.2-37.1 24.8 5.7 24.8-38.1 20.9-61.9 9.5-43.8 32.4-157.1-40-279.9-49.5-123.7-9.5-171.3 0-360.8 2z" fill="#F1AA9F" id="sdeVuW-XAd1IFBCDWjKAy" /><path d="m92.7 1032.5c97.1 10.5 284.7 42.8 368.4 60-20-12.4-258.3-96.2-346.4-119.7-4.7 10.4-12.5 32.1-22 59.7z" fill="#7A9F99" id="LjREOMlYutvhxk6syrCSH" /><path d="m1074.1 562.6c-2.4 1.2-4.9 2.4-7.3 3.7 0 0-.1.2-.2.7 7.2 47.7 14 123-8.3 152.7-5.6 7.5-12.6 11.3-21.4 11.9-36.7 2.3-58.1-42.7-69.6-80.8-1.2-4-2.3-8-3.4-11.9-2.6.4-5.2.9-7.9 1.2 1.1 4.3 2.3 8.6 3.6 12.9 7.7 25.6 17.2 45.9 28.1 60.3 13.3 17.5 28.9 26.4 46.4 26.4 1.1 0 2.2 0 3.3-.1 11.1-.7 20.3-5.8 27.3-15.1 24.6-33 16.9-113.3 9.4-161.9z" fill="#F9B3AE" id="BvWZ5wgJYNzP75tYBxbzK" /><path d="m955.9 639.9c-.9.1-1.7.2-2.6.3-1.6.2-3.1.4-4.6.5-.3 0-.5.1-.8.1-2.6.3-5.2.5-7.7.7-9 35.7-25.5 72.7-46.9 88.8-11.2 8.4-22.9 10.5-34.8 6.1-48.5-17.7-58.6-109.5-60.3-159-2.4.5-5.1.4-7.8 0 .5 15.8 1.8 35.9 5 56.5 9.4 61.7 29.7 98.7 60.4 109.9 5 1.8 10 2.8 14.9 2.8 9.4 0 18.6-3.3 27.4-10 23-17.4 40.5-55.9 49.9-93.2l5.2 180.1v.3s1.6 15.2-2.4 30.8c-5.1 19.9-16.8 31.3-34.6 33.7-2.2.3-3.7 2.3-3.4 4.5.3 2 2 3.5 4 3.5h.6c21.1-2.9 35.4-16.7 41.3-39.9 4.1-16.2 2.8-31.4 2.6-33.3z" fill="#F9B3AE" id="yAmH0C0ntqFpkWcidc4I0" /><circle cx="925.8" cy="766.8" fill="#F9B3AE" r="8.6" id="L5NRR1loay8eSkujTOrNL" /><path d="m931.4 79c.1 2.1 1.9 3.8 4 3.8h.2c2.2-.1 3.9-2 3.8-4.2 0-.4-1.2-27.3 14.2-48.1-1.7-2.3-3.4-4.4-5.2-6.4-5.8 7.3-10.2 15.9-13.1 25.8-4.6 15.6-3.9 28.6-3.9 29.1z" fill="#983C80" id="LFd3KBMX7QLGP_MufPDJ3" /><path d="m1241.6 960c-1-2-3.3-2.8-5.3-1.9-2 1-2.8 3.3-1.9 5.3l144 299c.7 1.4 2.1 2.3 3.6 2.3.6 0 1.2-.1 1.7-.4 2-1 2.8-3.3 1.9-5.3z" fill="#F9B3AE" id="S-7zmyLnIfmdAn_0PBVQt" /><path d="m1091.8 467.3c-43.3 2.6-27.1 104.5 36.3 113.1 0 0 17.4 53.4 64.1 118.8 93.4 130.6 68 390.9 164.6 584.1 114.2 228.5 405.2 168.5 404.2-61.5-.7-166.5-188-383-269.7-491-109.8-145.1-154.2-238-215.9-300.5-39.3-39.8-83.1-48.9-99.8-21.1-12.7-4.9-37.5 7.4-42.8 28.2-15.5-4.4-39.5 7.7-41 29.9z" fill="#F1AA9F" id="l_FHBb2mLQgsXZkBN29A8" /><circle cx="927.5" cy="838.4" fill="#F9B3AE" r="8.6" id="TawdHk-lcJsbAgzBB6JF" /><g fill="#7A9F99" id="b9GoigR2-j2cDTDP3LIJ"><path d="m1127.5 1302.2c-2-1-4.4-.2-5.4 1.8s-.2 4.4 1.8 5.4c41.8 20.9 92.3 63.2 115 99.1 3.9 1 7.3 1.7 10.3 1.9-21.6-38.8-75.8-85.2-121.7-108.2z" fill="#7A9F99" id="L5bNTM0VCCs9dAMOouUhw" /><path d="m1090.2 1336.4c-2-.9-4.4 0-5.3 2s0 4.4 2 5.3c.3.2 35.1 15.9 66.6 37.8 20.4 14.2 41.9 32.9 48.3 51.8 3.1 1 6.1 1.9 9 2.4-11.1-49.4-115.5-97-120.6-99.3z" fill="#7A9F99" id="ugxbnFaVb4deMlqEEw15m" /><path d="m1100 1395.2c-23.3-11.9-47-20.8-47.2-20.8-2.1-.8-4.4.3-5.1 2.4-.8 2.1.3 4.4 2.4 5.1 35.2 13.1 91 40.2 91.1 57.3 0 1.3-.6 2.5-1.3 3.6 2.3 1.1 5 2.3 7.7 3.2 1.1-2.2 1.7-4.4 1.7-6.9-.3-12.7-16.4-27-49.3-43.9z" fill="#7A9F99" id="q9j83oEVTf3Kwg0CV36T" /><path d="m326 1117.7c.6 1.6 2.1 2.6 3.7 2.6.5 0 .9-.1 1.4-.3 48.5-18.1 97.4-24.3 137-25.5-.7-.1-1.5-.1-2.2-.2-2.3-1-9.3-3.4-19.9-6.7-35.7 2.6-76.8 9.6-117.7 24.8-2 .9-3.1 3.2-2.3 5.3z" fill="#7A9F99" id="gPVWTtYv1Vz9rnWmLXuOI" /><path d="m1113.1 521.1c-2.2.1-3.9 2-3.8 4.2.1 1.2 1 19.9 10 53.1 2.8.8 5.8 1.5 8.9 1.9-9.8-35.2-10.9-55.1-10.9-55.3-.1-2.3-2-4-4.2-3.9z" fill="#7A9F99" id="hTAkiGmYEqpXTksMz9Bt7" /><path d="m1230.4 730c1.7 0 3.2-1.1 3.8-2.7.7-2.1-.4-4.4-2.5-5.1-13.8-4.6-28.6-14.4-39.7-23.2 1 1.4 8.2 11.8 11.3 17.4 8.3 5.4 16.9 10.5 25.8 13.5.4 0 .9.1 1.3.1z" fill="#7A9F99" id="Wl_Y6iWUZdMVkL1N1tofu" /></g><path d="m1129 430.1c-.1.1-.2.3-.3.4 2 .1 4 .3 6.1.5 5.7-4.5 11.3-9.9 16.2-16.4-9.4 2.6-17.1 8-22 15.5z" fill="none" id="ujE6VRWQhgDxkuY0pFq" /><path d="m1231.4 437.4c-17.3-18.1-37.7-29.2-57.6-31.8-2.6-.3-5.1-.4-7.4-.4-3.3 0-6.4.2-9.4.6-14.7 2.2-24.5 10.3-28.3 24.7 0 .1 0 .1-.1.2v.1h-.1c-1 .3-2.1.7-3.1 1.1-7 2.6-13.2 5.7-18.4 9.5 2.5-.9 5-1.5 7.7-2 3.1-.6 6.2-.9 9.4-1-13.5 8.2-24.9 11.3-25.1 11.3-.2.1-.5.1-.7.2-2 2.8-3.7 5.8-4.9 9.2-.7 1.9-1.2 3.8-1.6 5.9-.1.6-.2 1.2-.3 1.9v.4c1.4-.1 4.6-.1 4.6-.1 14.7.2 36.1 5.4 55.2 29.8.8 1 2 1.5 3.1 1.5.9 0 1.7-.3 2.5-.9 1.7-1.4 2-3.9.7-5.6-19.1-24.2-40.4-31.1-55-32.6-.4 0-.8-.1-1.3-.1.4-.8.8-1.6 1.3-2.3 4.7-1.4 19.5-6.5 34.7-17.6 18 3.2 36.6 13.6 53.3 30.3.8.8 1.8 1.2 2.8 1.2s2-.4 2.8-1.2c1.6-1.6 1.6-4.1 0-5.7-15.9-15.9-33.6-26.5-51.1-31.1 6.1-5.5 12-12.1 16.9-20 21.1-1 44.7 10 63.7 29.9.8.8 1.8 1.2 2.9 1.2 1 0 2-.4 2.8-1.1 1.4-1.4 1.5-3.9-0-5.5zm-96.6-6.3c-2-.3-4.1-.4-6.1-.5.1-.1.2-.2.3-.4 4.9-7.6 12.5-12.9 22-15.4-4.9 6.4-10.5 11.8-16.2 16.3z" fill="#087F6C" id="NpjXX2y467L-hals-69n_" /><path d="m950.5 444.1c84.7 37.1 199 15.2 217.5-64.6l-100.4-10z" fill="#F1AA9F" id="QXY-RhqM5rkBcMaMJU6R0" /><path d="m1068.4 331.7c-.1 0-.2 0-.3 0-1.2-.1-1.8-1.1-1.9-2.2-.9-10.1 3.2-19.2 8.2-24.6 11.4-12.6 26.8-12.8 27-12.8 1.2-.3 2.5.3 2.8 1.3.4 1-.3 2.2-1.5 2.5-1.1.3-27.9 7.6-32 34.2-.2.9-1.2 1.6-2.3 1.6z" fill="#983C80" id="kpErNnwSbNbME_-Xv5xh_" /></g></g><g transform="translate(665 77)" data-asset-index="2"><g clip-path="url(#assetClipPath_8DDVGEeO)" transform="scale(0.46753906746283824 0.46770601336302897)" data-asset-index="2"><ellipse cx="452.3" cy="261.2" fill="#FFFFFF" rx="330.8" ry="257.2" transform="matrix(1 -.0048999 .0048999 1 -1.2745 2.2194)" id="zfzy2UxkAVXRdYiBOXtN" /><path d="m451.4 522.4c-88.4 0-171.6-26.6-234.5-75-63.7-49-99-114.6-99.3-184.6s34.2-135.8 97.5-185.5c62.9-49.4 146.7-76.9 235.9-77.3s173.3 26.2 236.7 75c63.7 49 99 114.6 99.3 184.6s-34.3 135.9-97.5 185.5c-62.9 49.4-146.7 76.9-236 77.3-.6 0-1.4 0-2.1 0zm1.8-514.4c-.7 0-1.4 0-2.1 0-87.5.4-169.6 27.3-231.1 75.6-61.2 48.1-94.8 111.7-94.5 179.2.3 67.4 34.5 130.7 96.2 178.3 62 47.7 144.3 73.8 231.8 73.4s169.5-27.3 231.1-75.6c61.2-48.1 94.8-111.7 94.5-179.2-.3-67.4-34.5-130.7-96.2-178.3-61.5-47.4-143-73.4-229.7-73.4z" fill="#087F6C" id="cMU_o0e2RACsIxGkSqYy" /><g fill="#087F6C" id="fIEeBGthkJY_gpwAfDwVb"><path d="m309.2 357.5c-2.2 0-4-1.8-4-4s1.8-4 4-4l278.3-1.4c2.2 0 4 1.8 4 4s-1.8 4-4 4z" fill="#087F6C" id="zzA7uvm75AI_WhWlozWnp" /><path d="m321.1 126.9c-.8 0-1.7-.3-2.4-.8-1.8-1.3-2.1-3.8-.8-5.6l14-18.9c.8-1 1.9-1.6 3.2-1.6 1.2 0 2.5.6 3.2 1.6l14.2 18.8c1.3 1.8 1 4.3-.8 5.6s-4.3 1-5.6-.8l-11-14.5-10.8 14.6c-.7 1-2 1.6-3.2 1.6z" fill="#087F6C" id="v5RntKwDanuMGMx7DgQ43" /><path d="m573.3 370.2c-1.2 0-2.4-.5-3.2-1.6-1.3-1.8-1-4.3.8-5.6l14.5-11-14.6-10.8c-1.8-1.3-2.2-3.8-.9-5.6s3.8-2.2 5.6-.9l19 13.9c1 .7 1.6 1.9 1.6 3.2s-.6 2.5-1.6 3.2l-18.7 14.3c-.8.6-1.7.9-2.5.9z" fill="#087F6C" id="B3PKrp28OKCWOV2uOzG1n" /><path d="m336.3 390.3c-2.2 0-4-1.8-4-4l-1.4-278.3c0-2.2 1.8-4 4-4s4 1.8 4 4l1.3 278.3c.1 2.1-1.7 3.9-3.9 4z" fill="#087F6C" id="gbH53ghfbrdHEWTd0elnn" /><path d="m336.3 357.3c-1 0-2.1-.4-2.9-1.2-1.5-1.6-1.5-4.1 0-5.7l235.6-231.7c1.6-1.5 4.1-1.5 5.7 0 1.5 1.6 1.5 4.1 0 5.7l-235.5 231.8c-.8.7-1.8 1.1-2.9 1.1z" fill="#087F6C" id="WRODTMwpGLL6-JNC91QU" /></g><ellipse cx="217.6" cy="599" fill="#FFFFFF" rx="69.6" ry="54.1" id="nh3ojrwHapBtQhYZpuTtc" /><path d="m217.6 657c-40.6 0-73.6-26-73.6-58s33-58.1 73.6-58.1 73.6 26.1 73.6 58.1-33 58-73.6 58zm0-108.1c-36.2 0-65.6 22.5-65.6 50.1s29.4 50.1 65.6 50.1 65.6-22.5 65.6-50.1-29.4-50.1-65.6-50.1z" fill="#087F6C" id="iUTEljn0pOY3zCOt17s7b" /><ellipse cx="37.3" cy="643.6" fill="#FFFFFF" rx="33.3" ry="25.9" id="yXbDfAPtD94ZBaBPf747m" /><path d="m37.3 673.5c-20.5 0-37.3-13.4-37.3-29.9s16.8-29.9 37.4-29.9 37.4 13.4 37.4 29.9-16.9 29.9-37.5 29.9zm0-51.9c-16.2 0-29.3 9.8-29.3 21.9s13.2 21.9 29.4 21.9 29.4-9.8 29.4-21.9-13.3-21.9-29.5-21.9z" fill="#087F6C" id="jfCFNohGSWWDr_qCZtYP3" /><path d="m301.3 180.6c-1.2 0-2.4-.5-3.1-1.5l-26.6-33.8c-1.4-1.7-1.1-4.3.7-5.6 1.7-1.4 4.3-1.1 5.6.7l26.6 33.8c1.4 1.7 1.1 4.3-.7 5.6-.7.6-1.6.8-2.5.8z" fill="#087F6C" id="t7Nhf31QUjDE8chZY1A" /><path d="m274.8 180.6c-.9 0-1.7-.3-2.5-.9-1.7-1.4-2-3.9-.7-5.6l26.6-33.8c1.4-1.7 3.9-2 5.6-.7 1.7 1.4 2 3.9.7 5.6l-26.6 33.8c-.8 1.1-2 1.6-3.1 1.6z" fill="#087F6C" id="dPHntGj4i6Af9jgaEGJRK" /><path d="m545.8 411.8c-1.2 0-2.4-.5-3.2-1.6l-.1-.1-13.3-16.9c-1.4-1.7-1.1-4.3.7-5.6s4.2-1.1 5.6.7l13.4 17.1c1.3 1.8 1 4.3-.7 5.6-.7.5-1.6.8-2.4.8z" fill="#087F6C" id="MPC2fP7WYVChYVjSHVSa_" /><path d="m545.6 411.8c-.9 0-1.7-.3-2.4-.8-1.8-1.3-2.1-3.9-.7-5.6l.1-.1 13.3-16.9c1.4-1.7 3.9-2 5.6-.7 1.7 1.4 2 3.9.7 5.6l-13.4 17c-.8.9-2 1.5-3.2 1.5z" fill="#087F6C" id="KwFAps-D2sUld7-M77Pc" /><path d="m545.7 428.6c-2.2 0-4-1.8-4-4v-17c0-2.2 1.8-4 4-4s4 1.8 4 4v17c0 2.3-1.8 4-4 4z" fill="#087F6C" id="th2bhEm8qXZlwUrf4jdpY" /></g></g><g transform="translate(162 89)" data-asset-index="3"><g clip-path="url(#assetClipPath_MY3aqMO-)" transform="scale(0.47261269995152694 0.47151698086248317)" data-asset-index="3"><g fill="#087F6C" id="u-l_YpKoBgCKzOt_7OWy"><path d="m262.283 475.764-21.556 34.837c-3.572 5.773-11.148 7.558-16.922 3.986l-18.072-11.182c-14.256-8.772-26.297-20.714-35.185-34.897-5.816-9.317-9.603-19.754-11.115-30.632-5.164-35.69-8.427-52.114-9.646-56.711-10.567-22.047-37.005-31.353-59.052-20.787-7.264 3.482-13.44 8.879-17.864 15.611-.219.332-.433.668-.642 1.005-9.747 15.703-8.716 35.809 2.586 50.432 3.505 4.545 3.383 10.914-.292 15.322l-26.528 31.973c-4.319 5.227-12.057 5.962-17.283 1.643-.385-.318-.751-.66-1.094-1.023-33.888-36.216-39.279-90.658-13.151-132.817.517-.836 1.042-1.66 1.584-2.486 33.295-50.712 101.396-64.831 152.108-31.535 17.363 11.4 31.138 27.489 39.727 46.401 2.19 4.742 5.499 11.909 14.423 73.584.221 1.813.813 3.562 1.737 5.137 3.583 5.706 8.434 10.509 14.175 14.035l18.072 11.182c5.774 3.571 7.561 11.147 3.99 16.922 0-.001 0 0 0 0z" fill="#087F6C" id="gMoMHzEM7oWCJBtP6gSz-" /><path d="m294.688 558.057-23.561-14.562c-5.777-3.57-7.566-11.148-3.995-16.925l21.543-34.857c3.57-5.777 11.148-7.566 16.925-3.995l23.561 14.562c5.777 3.57 7.566 11.148 3.995 16.925l-21.543 34.857c-3.571 5.776-11.148 7.565-16.925 3.995z" fill="#087F6C" id="pkIzoZtSqRaQA32gP-tIg" /><path d="m539.897 201.226-29.574 7.932c-4.901 1.314-9.939-1.593-11.254-6.494 0 0 0 0 0-.001l-4.121-15.343c-3.272-12.076-3.715-24.743-1.292-37.018 1.604-8.05 4.886-15.672 9.633-22.369 15.462-22.076 22.095-32.69 23.786-35.817 5.535-17.415-4.095-36.02-21.51-41.555-5.738-1.824-11.864-2.047-17.719-.647-.29.07-.578.142-.865.22-13.348 3.56-23.081 15.037-24.412 28.787-.419 4.269-3.746 7.674-8.004 8.193l-30.817 3.823c-5.029.634-9.619-2.929-10.252-7.958-.047-.37-.071-.742-.072-1.114.096-37.071 25.041-69.472 60.856-79.044.71-.189 1.417-.369 2.135-.543 44.095-10.563 88.404 16.62 98.967 60.715 3.616 15.096 2.879 30.909-2.128 45.603-1.236 3.704-3.103 9.302-29.824 47.45-.809 1.101-1.383 2.356-1.687 3.687-.971 4.943-.788 10.043.533 14.904l4.115 15.344c1.308 4.897-1.598 9.93-6.494 11.245z" fill="#087F6C" id="wsolv4GiuSBKtXWrY2IY" /><path d="m515.474 262.769-5.362-19.992c-1.314-4.901 1.593-9.939 6.494-11.254l29.575-7.931c4.901-1.314 9.94 1.593 11.254 6.494l5.362 19.992c1.314 4.901-1.593 9.94-6.494 11.254l-29.575 7.931c-4.901 1.314-9.94-1.593-11.254-6.494z" fill="#087F6C" id="au4_gv4rQMVSoubDgxiMW" /></g></g></g></svg>