<?xml version='1.0' encoding='utf-8'?>
<svg xmlns="http://www.w3.org/2000/svg" xmlns:xlink="http://www.w3.org/1999/xlink" fill="none" viewBox="0 0 2300 2100" width="2300" height="2100"><defs><clipPath id="assetClipPath_ZItXzsWu"><path d="m0 0 h 489.452 v 253.501 h -489.452 v -253.501 z" id="path_asjmy-I0" fill="#ffffff" /></clipPath><clipPath id="assetClipPath_-IpuPji7"><path d="m0 0 h 2091.179 v 1378.578 h -2091.179 v -1378.578 z" id="path_rsRsbtfF" fill="#ffffff" /></clipPath><clipPath id="assetClipPath_VhbcZsbI"><path d="m0 0 h 1777.839 v 1503.926 h -1777.839 v -1503.926 z" id="path_oQU-5RUF" fill="#ffffff" /></clipPath><clipPath id="assetClipPath_A4qv3RPz"><path d="m0 0 h 1139.777 v 712.973 h -1139.777 v -712.973 z" id="path_2DSG9vWr" fill="#ffffff" /></clipPath><clipPath id="assetClipPath_zQQkEeLc"><path d="m0 0 h 489.452 v 253.501 h -489.452 v -253.501 z" id="path_fi8D24zj" fill="#ffffff" /></clipPath><clipPath id="clipPath_f2BueJLT"><path d="m525.325-97.275-549.868-359.102 943.996-114.328z" /></clipPath><clipPath id="clipPath_r463tv0Z"><path d="m1515.606-415.547-990.281 318.272 394.128-473.43z" /></clipPath><clipPath id="clipPath__bIEBMmH"><path d="m1515.606-415.547-596.153-155.158 833.843-457.062z" /></clipPath><clipPath id="clipPath_K7cqr1v6"><path d="m-665.851 1627.655-596.153-155.159 833.843-457.061z" /></clipPath><clipPath id="clipPath_dFGv33ZP"><path d="m947.51 1076.503-445.576 30.455 222.26-724.903z" /></clipPath><clipPath id="clipPath_4kdOxydB"><path d="m967.944 1069.935 379.886-234.844-603.142-459.801z" /></clipPath><clipPath id="clipPath__mHho_5O"><path d="m549.868 1503.926-549.868-359.102 943.996-114.328z" /></clipPath><clipPath id="clipPath_5wsppsD_"><path d="m1540.149 1185.655-990.281 318.271 394.128-473.43z" /></clipPath><clipPath id="clipPath_nse5ajcI"><path d="m1540.149 1185.655-596.153-155.159 833.843-457.061z" /></clipPath><clipPath id="clipPath_bBNjuHH1"><path d="m961.005 2299.499-445.576 30.456 222.259-724.903z" /></clipPath><clipPath id="clipPath_uVR2Vf8G"><path d="m981.438 2292.932 379.887-234.844-603.142-459.801z" /></clipPath></defs><g transform="translate(1628 313)" data-asset-index="0"><g clip-path="url(#assetClipPath_ZItXzsWu)" transform="scale(0.9745593030572968 0.9743551307489912)" data-asset-index="0"><linearGradient id="linearGradient_2BCFwRTC" gradientTransform="matrix(1 0 0 -1 15473.1 134.947)" gradientUnits="userSpaceOnUse" x1="-15473.1" x2="-14983.649" y1="67.474" y2="67.474"><stop offset=".302" stop-color="#71D2BC" /><stop offset="1" stop-color="#A4FFEE" stop-opacity="0" /></linearGradient><linearGradient id="linearGradient_JTOvtYpV" x1="34.808" x2="468.733" xlink:href="#linearGradient_2BCFwRTC" y1="206.544" y2="206.544" /><path d="m0 0h489.452v134.947h-489.452z" fill="url(#linearGradient_2BCFwRTC)" transform="matrix(-1 -0 0 -1 489.452 134.947)" id="Ul1Lvu2yKnQSHlCePt8YR" /><path d="m38.808 253.501h-4v-93.915h433.925v4h-429.925z" fill="url(#linearGradient_JTOvtYpV)" id="FNVy_ApxW4YWtmK2SMVvP" /></g></g><g transform="translate(121 87)" data-asset-index="1"><g clip-path="url(#assetClipPath_-IpuPji7)" transform="scale(0.9984798049330067 0.9981299571007226)" data-asset-index="1"><linearGradient id="linearGradient_hhSY7bDf" gradientUnits="userSpaceOnUse" x1="0" x2="1867.215" y1="689.289" y2="689.289"><stop offset="0" stop-color="#95E6C8" stop-opacity="0.1" /><stop offset="1" stop-color="#0CA069" stop-opacity="0.9" /></linearGradient><linearGradient id="linearGradient_EQ92q2a4" gradientUnits="userSpaceOnUse" x1="1382.397" x2="1543.919" y1="822.157" y2="738.025"><stop offset="0" stop-color="#FFFFFF" /><stop offset="1" stop-color="#95E6C8" stop-opacity="0" /></linearGradient><linearGradient id="linearGradient_pBnAo3xE" gradientUnits="userSpaceOnUse" x1="1344.54" x2="1504.67" y1="800.172" y2="800.172"><stop offset="0" stop-color="#95E6C8" stop-opacity="0.2" /><stop offset="1" stop-color="#FFFFFF" /></linearGradient><linearGradient id="linearGradient_q4BSMXWR" gradientUnits="userSpaceOnUse" x1="963.277" x2="1215.268" y1="111.904" y2="-19.351"><stop offset="0" stop-color="#FFFFFF" stop-opacity="0.8" /><stop offset="1" stop-color="#0CA069" stop-opacity="0" /></linearGradient><linearGradient id="linearGradient_tu7vThQ4" gradientUnits="userSpaceOnUse" x1="925.421" x2="1085.55" y1="89.919" y2="89.919"><stop offset=".004" stop-color="#0CA069" stop-opacity="0.2" /><stop offset="1" stop-color="#FFFFFF" stop-opacity="0.8" /></linearGradient><linearGradient id="linearGradient_Pj1dyU2Z" gradientUnits="userSpaceOnUse" x1="464.461" x2="756.128" y1="1308.562" y2="1156.641"><stop offset="0" stop-color="#FFFFFF" stop-opacity="0.5" /><stop offset="1" stop-color="#0CA069" stop-opacity="0" /></linearGradient><linearGradient id="linearGradient_KkUh67wR" gradientUnits="userSpaceOnUse" x1="426.603" x2="586.733" y1="1286.578" y2="1286.578"><stop offset="0" stop-color="#0CA069" stop-opacity="0.1" /><stop offset="1" stop-color="#FFFFFF" stop-opacity="0.5" /></linearGradient><linearGradient id="linearGradient_aG55ZcTc" x1="108.29" x2="399.957" xlink:href="#linearGradient_Pj1dyU2Z" y1="492.438" y2="340.517" /><linearGradient id="linearGradient_EBbkD4PG" x1="70.433" x2="230.563" xlink:href="#linearGradient_KkUh67wR" y1="470.454" y2="470.454" /><path d="m2091.179 823.7-203.362-264.512v165.867c-.027-.036-.052-.073-.079-.109h-374.509c-69.804 0-126.593-56.789-126.593-126.592v-221.666c0-50.812-9.973-100.153-29.64-146.652-18.978-44.867-46.125-85.142-80.689-119.707-34.565-34.564-74.84-61.712-119.707-80.689-46.5-19.667-95.84-29.64-146.652-29.64s-100.153 9.973-146.652 29.64c-44.866 18.977-85.142 46.125-119.706 80.689s-61.713 74.84-80.689 119.707c-19.668 46.499-29.64 95.84-29.64 146.652v691.297c0 69.804-56.79 126.593-126.593 126.593s-126.593-56.79-126.593-126.593v-398.923c0-41.889-8.225-82.574-24.446-120.925-15.648-36.997-38.03-70.203-66.525-98.697-28.495-28.495-61.701-50.877-98.697-66.525-38.351-16.221-79.036-24.446-120.925-24.446h-69.482v184h69.482c69.804 0 126.593 56.79 126.593 126.593v398.923c0 41.889 8.225 82.574 24.445 120.925 15.648 36.997 38.03 70.203 66.525 98.697s61.702 50.877 98.698 66.525c38.351 16.221 79.036 24.446 120.925 24.446s82.575-8.225 120.926-24.446c36.996-15.648 70.203-38.03 98.697-66.525s50.877-61.701 66.525-98.697c16.221-38.351 24.445-79.036 24.445-120.925v-691.297c0-106.248 86.44-192.688 192.688-192.688s192.688 86.439 192.688 192.688v221.666c0 41.889 8.225 82.574 24.445 120.925 15.648 36.996 38.031 70.203 66.525 98.697 28.494 28.495 61.701 50.877 98.697 66.525 38.351 16.221 79.036 24.445 120.925 24.445h374.509c.027-.059.053-.117.079-.176v179.441l203.362-264.512z" fill="url(#linearGradient_hhSY7bDf)" id="j_gX8MTelTxp1KwFCg7IG" /><circle cx="1424.605" cy="800.172" fill="url(#linearGradient_EQ92q2a4)" r="53.659" id="C4MdR5ppPd0AKpM6V9zSc" /><path d="m1424.604 880.237c-44.147 0-80.064-35.917-80.064-80.064s35.917-80.065 80.064-80.065 80.065 35.917 80.065 80.065-35.917 80.064-80.065 80.064zm0-150.13c-38.634 0-70.064 31.432-70.064 70.065s31.431 70.064 70.064 70.064 70.065-31.431 70.065-70.064-31.432-70.065-70.065-70.065z" fill="url(#linearGradient_pBnAo3xE)" id="MRNsWmdRg4kSiAS2tCPXR" /><circle cx="1005.485" cy="89.919" fill="url(#linearGradient_q4BSMXWR)" r="53.659" id="Cm_bkzVnVRiZXhKoO10vx" /><path d="m1005.485 169.983c-44.147 0-80.064-35.917-80.064-80.064s35.917-80.064 80.064-80.064 80.064 35.917 80.064 80.064-35.917 80.064-80.064 80.064zm0-150.129c-38.634 0-70.064 31.431-70.064 70.064s31.431 70.064 70.064 70.064 70.064-31.431 70.064-70.064-31.431-70.064-70.064-70.064z" fill="url(#linearGradient_tu7vThQ4)" id="bMpqsYvkcupsvqbw_d7km" /><circle cx="506.668" cy="1286.577" fill="url(#linearGradient_Pj1dyU2Z)" r="53.659" id="M9xlvb1YC9XV40Z8lOoSf" /><path d="m506.669 1366.642c-44.148 0-80.065-35.917-80.065-80.065s35.917-80.064 80.065-80.064 80.064 35.917 80.064 80.064-35.917 80.065-80.064 80.065zm0-150.13c-38.634 0-70.065 31.431-70.065 70.064s31.432 70.065 70.065 70.065 70.064-31.432 70.064-70.065-31.431-70.064-70.064-70.064z" fill="url(#linearGradient_KkUh67wR)" id="IEBoqm6Tlg0EWmxCP4olX" /><circle cx="150.498" cy="470.453" fill="url(#linearGradient_aG55ZcTc)" r="53.659" id="G3ixo7zY_Vl9CmYobfCu" /><path d="m150.498 550.518c-44.147 0-80.064-35.917-80.064-80.065s35.917-80.064 80.064-80.064 80.065 35.917 80.065 80.064-35.917 80.065-80.065 80.065zm0-150.13c-38.634 0-70.064 31.431-70.064 70.064s31.431 70.065 70.064 70.065 70.065-31.432 70.065-70.065-31.432-70.064-70.065-70.064z" fill="url(#linearGradient_EBbkD4PG)" id="S_PX0535mcKn5XEne6c" /><g fill="none" id="tK_bv2JkZBiAoVVv8D89"><g clip-path="url(#clipPath_f2BueJLT)" id="sB-LpGRGQn9un7bcjg5p"><g fill="#FFFFFF" opacity=".3" id="zjjv2NJFvwtRc8vJ-DUwN"><path d="m132.202 556.909c-1.003 0-1.867-.752-1.985-1.771l-118.385-1029.018c-.126-1.098.661-2.089 1.758-2.216 1.1-.123 2.089.662 2.215 1.759l118.386 1029.018c.126 1.098-.661 2.089-1.759 2.216-.077.009-.154.013-.23.013z" fill="#FFFFFF" id="XLWp2uBFf2UzvxzLT8ylX" /><path d="m261.466 542.038c-1.003 0-1.867-.752-1.985-1.771l-118.385-1029.018c-.126-1.098.661-2.089 1.759-2.216 1.096-.123 2.089.662 2.216 1.759l118.385 1029.018c.126 1.098-.661 2.089-1.759 2.216-.077.009-.154.013-.23.013z" fill="#FFFFFF" id="z8Za0xZP68V7m_rE8_DI" /><path d="m390.73 527.166c-1.003 0-1.867-.752-1.985-1.771l-118.385-1029.017c-.126-1.098.661-2.089 1.759-2.216 1.076-.123 2.089.66 2.216 1.759l118.385 1029.017c.126 1.098-.661 2.089-1.759 2.216-.077.009-.154.013-.23.013z" fill="#FFFFFF" id="sUtyrOKoOA00IyEyxcyN" /><path d="m519.995 512.295c-1.003 0-1.867-.752-1.985-1.771l-118.385-1029.018c-.126-1.098.661-2.089 1.759-2.216 1.094-.124 2.089.662 2.216 1.759l118.385 1029.018c.126 1.098-.661 2.089-1.759 2.216-.077.009-.154.013-.23.013z" fill="#FFFFFF" id="Tds63Peswe0TxT1cInw9" /><path d="m649.26 497.424c-1.003 0-1.867-.752-1.985-1.771l-118.385-1029.018c-.126-1.098.661-2.089 1.759-2.216 1.093-.125 2.089.662 2.216 1.759l118.385 1029.018c.126 1.098-.661 2.089-1.759 2.216-.077.009-.154.013-.23.013z" fill="#FFFFFF" id="SGLfS1ELQqh3g5PC09ucv" /><path d="m778.523 482.553c-1.003 0-1.867-.752-1.985-1.771l-118.385-1029.018c-.126-1.098.661-2.089 1.759-2.216 1.094-.127 2.089.661 2.216 1.759l118.385 1029.018c.126 1.098-.661 2.089-1.759 2.216-.077.009-.154.013-.23.013z" fill="#FFFFFF" id="HPIz6iVvfdVaGs8vI7B_6" /><path d="m907.788 467.681c-1.003 0-1.867-.752-1.985-1.771l-118.385-1029.018c-.126-1.098.661-2.089 1.759-2.216 1.093-.127 2.089.661 2.216 1.759l118.385 1029.018c.126 1.098-.661 2.089-1.759 2.216-.077.009-.154.013-.23.013z" fill="#FFFFFF" id="HGCtWuJmjQROMFZbr8Vp" /><path d="m1037.053 452.809c-1.003 0-1.867-.752-1.985-1.771l-118.385-1029.018c-.126-1.098.661-2.089 1.759-2.216 1.099-.128 2.088.662 2.216 1.759l118.385 1029.018c.126 1.098-.661 2.089-1.759 2.216-.077.009-.154.013-.23.013z" fill="#FFFFFF" id="Oz_0LD0xFbXbYglUooreM" /><path d="m1166.316 437.938c-1.003 0-1.867-.752-1.985-1.771l-118.384-1029.018c-.126-1.098.661-2.089 1.759-2.216 1.091-.122 2.089.662 2.216 1.759l118.384 1029.018c.126 1.098-.661 2.089-1.759 2.216-.077.009-.154.013-.23.013z" fill="#FFFFFF" id="nNXxJOPJLNGsOdiQ0zUmN" /><path d="m73.009 42.4c-1.002 0-1.867-.752-1.984-1.771-.126-1.098.661-2.089 1.758-2.216l1034.114-118.971c1.078-.128 2.089.661 2.216 1.759.126 1.098-.661 2.089-1.759 2.216l-1034.114 118.971c-.078.009-.155.013-.231.013z" fill="#FFFFFF" id="bBbs9Jd6vyICFA-V3rCF" /><path d="m87.881 171.665c-1.002 0-1.867-.752-1.984-1.771-.126-1.098.661-2.089 1.758-2.216l1034.114-118.972c1.081-.118 2.089.661 2.216 1.759.126 1.098-.661 2.089-1.759 2.216l-1034.114 118.971c-.078.009-.155.013-.231.013z" fill="#FFFFFF" id="dQY6A1-2WWstp9OqcqRwu" /><path d="m102.752 300.929c-1.002 0-1.867-.752-1.984-1.771-.126-1.098.661-2.089 1.758-2.216l1034.115-118.971c1.072-.123 2.088.66 2.216 1.759.126 1.098-.661 2.089-1.759 2.216l-1034.115 118.97c-.078.009-.155.013-.231.013z" fill="#FFFFFF" id="SSOzKTlxTeH6cFU9GjyLq" /><path d="m117.623 430.193c-1.002 0-1.867-.752-1.984-1.771-.126-1.098.661-2.089 1.758-2.216l1034.114-118.971c1.076-.127 2.089.661 2.216 1.759.126 1.098-.661 2.089-1.759 2.216l-1034.114 118.971c-.077.009-.154.013-.231.013z" fill="#FFFFFF" id="YWnvmDmDZhBeTU8jV1bpU" /><path d="m132.494 559.458c-1.002 0-1.866-.752-1.984-1.771-.126-1.098.661-2.089 1.759-2.216l1034.115-118.972c1.079-.117 2.089.661 2.216 1.759.126 1.098-.661 2.089-1.759 2.216l-1034.115 118.972c-.077.009-.154.013-.231.013z" fill="#FFFFFF" id="lzW8s9DnJDpGOuqjKT4Fe" /></g></g><g clip-path="url(#clipPath_r463tv0Z)" id="CsCxr_y6NXpDS_0782Mgc"><g fill="#FFFFFF" opacity=".3" id="fygxZNgQB58DpK9_bTKrg"><path d="m787.684 537.852c-.854 0-1.645-.552-1.91-1.41l-250.176-808.735c-.326-1.055.265-2.175 1.32-2.502 1.05-.325 2.175.265 2.502 1.32l250.176 808.735c.326 1.055-.265 2.175-1.32 2.502-.196.061-.396.09-.592.09z" fill="#FFFFFF" id="gef0L11aY0ghX17X0PtAE" /><path d="m944.475 511.233c-.85 0-1.639-.547-1.907-1.401l-290.684-925.473c-.331-1.054.255-2.177 1.309-2.508 1.054-.329 2.176.254 2.508 1.309l290.684 925.473c.331 1.054-.255 2.177-1.309 2.508-.2.063-.401.093-.601.093z" fill="#FFFFFF" id="YwmVRv9e2lTn4ehmSoZOP" /><path d="m1080.364 448.763c-.853 0-1.642-.55-1.908-1.406l-307.978-988.96c-.329-1.055.26-2.176 1.314-2.504 1.055-.327 2.176.26 2.504 1.314l307.978 988.96c.329 1.055-.26 2.176-1.314 2.504-.198.062-.398.092-.596.092z" fill="#FFFFFF" id="GpGz2XenUpit3_FuiWml5" /><path d="m1227.43 411.256c-.853 0-1.642-.55-1.908-1.406l-307.978-988.96c-.329-1.055.26-2.176 1.314-2.504 1.055-.327 2.176.26 2.504 1.314l307.978 988.96c.329 1.055-.26 2.176-1.314 2.504-.198.062-.398.092-.596.092z" fill="#FFFFFF" id="za40_YjbPQGCQkUTgcfRb" /><path d="m1362.586 375.726c-.853 0-1.642-.55-1.908-1.406l-307.978-988.96c-.329-1.055.26-2.176 1.314-2.504 1.056-.328 2.176.26 2.504 1.314l307.978 988.96c.329 1.055-.26 2.176-1.314 2.504-.198.062-.398.092-.596.092z" fill="#FFFFFF" id="r7cUA6qu9WCzCgrzHB3Lr" /><path d="m1508.95 339.406c-.853 0-1.642-.55-1.908-1.406l-307.978-988.96c-.329-1.055.26-2.176 1.314-2.504 1.057-.327 2.176.26 2.504 1.314l307.978 988.96c.329 1.055-.26 2.176-1.314 2.504-.198.062-.398.092-.596.092z" fill="#FFFFFF" id="CjB-riNAFjY1b5-96J1va" /><path d="m1651.313 286.965c-.853 0-1.642-.55-1.908-1.406l-307.978-988.96c-.329-1.055.26-2.176 1.314-2.504 1.056-.327 2.176.26 2.504 1.314l307.978 988.96c.329 1.055-.26 2.176-1.314 2.504-.198.062-.398.092-.596.092z" fill="#FFFFFF" id="uRolNKABrNjBeu-gET2W1" /><path d="m1770.496 244.564c-.853 0-1.642-.55-1.908-1.406l-307.979-988.96c-.329-1.055.26-2.176 1.314-2.504 1.056-.326 2.176.26 2.504 1.314l307.979 988.96c.329 1.055-.26 2.176-1.314 2.504-.198.062-.398.092-.596.092z" fill="#FFFFFF" id="sZR-KU2Z55x7S4qhi0s8j" /><path d="m622.648 59.587c-.853 0-1.642-.55-1.908-1.406-.329-1.055.26-2.176 1.314-2.504l993.858-309.503c1.054-.327 2.176.26 2.504 1.314.329 1.055-.26 2.176-1.314 2.504l-993.858 309.503c-.198.062-.398.092-.596.092z" fill="#FFFFFF" id="Vq9xUNWPFOwJ2RVxGoNkn" /><path d="m661.336 183.819c-.853 0-1.642-.55-1.908-1.406-.329-1.055.26-2.176 1.314-2.504l993.858-309.503c1.054-.328 2.175.259 2.504 1.314s-.26 2.176-1.314 2.504l-993.859 309.503c-.198.062-.398.092-.596.092z" fill="#FFFFFF" id="JFyFn-Fux0uhFmvJA_1tn" /><path d="m700.023 308.052c-.853 0-1.642-.55-1.908-1.406-.329-1.055.26-2.176 1.314-2.504l993.86-309.503c1.052-.329 2.176.26 2.504 1.314.329 1.055-.26 2.176-1.314 2.504l-993.859 309.503c-.198.062-.398.092-.596.092z" fill="#FFFFFF" id="phZYPH9yMgq_BKGQeTc" /><path d="m738.712 432.284c-.853 0-1.642-.55-1.908-1.406-.329-1.055.26-2.176 1.314-2.504l993.858-309.503c1.055-.327 2.176.26 2.504 1.314.329 1.055-.26 2.176-1.314 2.504l-993.858 309.503c-.198.062-.398.092-.596.092z" fill="#FFFFFF" id="qLQDnasiveNgTg_FYRuVu" /><path d="m777.399 556.516c-.853 0-1.642-.55-1.908-1.406-.329-1.055.26-2.176 1.314-2.504l993.859-309.503c1.053-.328 2.175.259 2.504 1.314s-.26 2.176-1.314 2.504l-993.859 309.503c-.198.062-.398.092-.596.092z" fill="#FFFFFF" id="V1Kt52jsTPhyF8w5yCA0Q" /></g></g><g clip-path="url(#clipPath__bIEBMmH)" id="nTrE2viB2IVuvO3eA1VT"><g fill="#FFFFFF" opacity=".3" id="qZ630bFkIogdYjGzeIOgQ"><path d="m1399.39 338.228c-.714 0-1.403-.382-1.765-1.055l-489.671-912.751c-.521-.973-.156-2.186.817-2.708.974-.52 2.186-.156 2.708.817l489.671 912.751c.521.974.156 2.186-.817 2.708-.301.161-.625.237-.943.237z" fill="#FFFFFF" id="gvDTmiUM1dr8nFeGDZHm1" /><path d="m1514.049 276.716c-.714 0-1.403-.382-1.765-1.055l-489.671-912.751c-.521-.974-.156-2.186.817-2.708.975-.521 2.186-.156 2.708.817l489.671 912.751c.521.973.156 2.186-.817 2.708-.301.161-.625.237-.943.237z" fill="#FFFFFF" id="nNIn5XKlrq_V9YqVPYvem" /><path d="m1628.708 215.204c-.714 0-1.403-.382-1.765-1.055l-489.671-912.751c-.521-.974-.156-2.186.817-2.708.976-.522 2.186-.155 2.708.817l489.671 912.751c.521.973.156 2.186-.817 2.708-.301.161-.624.237-.943.237z" fill="#FFFFFF" id="d0IBmLdf_bArVl8NX79rA" /><path d="m1743.367 153.692c-.714 0-1.403-.382-1.765-1.055l-489.671-912.751c-.521-.973-.156-2.186.817-2.708.975-.523 2.186-.157 2.708.817l489.671 912.751c.521.974.156 2.186-.817 2.708-.301.161-.625.237-.943.237z" fill="#FFFFFF" id="CLNjYR3l-fvcxvfVpIjVm" /><path d="m1858.026 92.18c-.714 0-1.403-.382-1.765-1.055l-489.671-912.751c-.521-.973-.156-2.186.817-2.708.975-.523 2.186-.156 2.708.817l489.672 912.751c.521.974.156 2.186-.817 2.708-.301.161-.624.237-.943.237z" fill="#FFFFFF" id="Tu0qRGdyYuyfV7jWEj1Ta" /><path d="m1972.685 30.668c-.714 0-1.403-.382-1.765-1.055l-489.671-912.751c-.521-.973-.156-2.186.817-2.708.974-.522 2.186-.157 2.708.817l489.672 912.752c.521.974.156 2.186-.817 2.708-.301.161-.625.237-.943.237z" fill="#FFFFFF" id="GzsYj5_XQ4xi4N9m61A9l" /><path d="m1277.579 111.171c-.714 0-1.403-.382-1.765-1.055-.521-.974-.156-2.186.817-2.708l917.272-492.097c.976-.522 2.186-.155 2.708.817.521.974.156 2.186-.817 2.708l-917.272 492.097c-.301.161-.624.237-.943.237z" fill="#FFFFFF" id="iGjjpfBzSFF4UMcaXMpdB" /><path d="m1339.091 225.83c-.714 0-1.403-.382-1.765-1.055-.521-.974-.156-2.186.817-2.708l917.272-492.097c.975-.521 2.186-.156 2.708.817.521.974.156 2.186-.817 2.708l-917.272 492.097c-.301.161-.624.237-.943.237z" fill="#FFFFFF" id="ee3GyvNJxKHzEtLbpBCXH" /><path d="m1400.603 340.488c-.714 0-1.403-.382-1.765-1.055-.521-.974-.156-2.186.817-2.708l917.271-492.096c.976-.521 2.186-.155 2.708.817.521.974.156 2.186-.817 2.708l-917.271 492.096c-.301.161-.625.237-.943.237z" fill="#FFFFFF" id="U5ZfnzYbOCABCEksVdm5C" /></g></g></g></g></g><g transform="translate(160 458)" data-asset-index="2"><g clip-path="url(#assetClipPath_VhbcZsbI)" transform="scale(1.001215520640508 1.000049204548628)" data-asset-index="2"><linearGradient id="linearGradient_mot0ShTC" gradientUnits="userSpaceOnUse" x1="855.104" x2="1040.032" y1="754.632" y2="1326.092"><stop offset=".117" stop-color="#003728" /><stop offset=".713" stop-color="#004E3E" stop-opacity="0" /><stop offset="1" stop-color="#54B6A1" stop-opacity="0.5" /></linearGradient><linearGradient id="linearGradient_oWZueu9M" gradientTransform="matrix(.95203865 .30597779 -.30597779 .95203865 266.87 -224.729)" gradientUnits="userSpaceOnUse" x1="746.509" x2="1052.492" y1="401.578" y2="1396.235"><stop offset="0" stop-color="#003728" /><stop offset="1" stop-color="#002A1C" /></linearGradient><linearGradient id="linearGradient_uSpSN5Ke" gradientUnits="userSpaceOnUse" x1="1178.591" x2="1129.347" y1="1000.648" y2="886.163"><stop offset="0" stop-color="#003728" /><stop offset="1" stop-color="#004E3E" stop-opacity="0" /></linearGradient><linearGradient id="linearGradient_sP-Enc45" gradientUnits="userSpaceOnUse" x1="1166.127" x2="854.038" y1="969.224" y2="336.333"><stop offset="0" stop-color="#003728" stop-opacity="0" /><stop offset="1" stop-color="#54B6A1" stop-opacity="0.7" /></linearGradient><linearGradient id="linearGradient_l9OyrVmY" gradientUnits="userSpaceOnUse" x1="1060.239" x2="1260.645" y1="792.418" y2="1120.987"><stop offset="0" stop-color="#003728" stop-opacity="0" /><stop offset="1" stop-color="#54B6A1" stop-opacity="0.5" /></linearGradient><linearGradient id="linearGradient_LPb9JGm-" x1="727.07" x2="717.67" xlink:href="#linearGradient_uSpSN5Ke" y1="1151.698" y2="911.576" /><linearGradient id="linearGradient_y7WlYum2" gradientUnits="userSpaceOnUse" x1="724.868" x2="698.352" y1="1095.65" y2="382.82"><stop offset="0" stop-color="#003728" stop-opacity="0" /><stop offset=".974" stop-color="#54B6A1" stop-opacity="0.7" /></linearGradient><linearGradient id="linearGradient_XPRixWyS" x1="710.855" x2="736.919" xlink:href="#linearGradient_l9OyrVmY" y1="931.936" y2="1232.281" /><linearGradient id="linearGradient_o-4crAWf" gradientUnits="userSpaceOnUse" x1="1021.628" x2="1339.808" y1="912.277" y2="837.582"><stop offset="0" stop-color="#5ABCA6" /><stop offset="1" stop-color="#A4FFEE" stop-opacity="0" /></linearGradient><linearGradient id="linearGradient_jmd_F6LJ" gradientTransform="matrix(1 0 0 -1 14373.131 4813.04)" x1="-12840.876" x2="-13127.27" xlink:href="#linearGradient_o-4crAWf" y1="3732.347" y2="3547.498" /><linearGradient id="linearGradient_Hr5NT8gT" gradientUnits="userSpaceOnUse" x1="1364.9" x2="1295.98" y1="559.247" y2="384.93"><stop offset=".055" stop-color="#007664" /><stop offset="1" stop-color="#258E7A" stop-opacity="0" /></linearGradient><linearGradient id="linearGradient_siHqCKEb" gradientUnits="userSpaceOnUse" x1="900.443" x2="1174.493" y1="506.585" y2="506.585"><stop offset=".419" stop-color="#54B6A1" /><stop offset=".675" stop-color="#9EFFE9" stop-opacity="0" /><stop offset=".88" stop-color="#54B6A1" /></linearGradient><linearGradient id="linearGradient_CZFSeOmD" x1="600.488" x2="990.005" xlink:href="#linearGradient_o-4crAWf" y1="906.821" y2="977.21" /><linearGradient id="linearGradient_Pf9c1CKQ" x1="590.384" x2="594.289" xlink:href="#linearGradient_o-4crAWf" y1="1432.323" y2="1331.425" /><linearGradient id="linearGradient_iCn75YYb" gradientUnits="userSpaceOnUse" x1="730.366" x2="1061.751" y1="620.845" y2="541.029"><stop offset=".128" stop-color="#007664" /><stop offset="1" stop-color="#258E7A" stop-opacity="0" /></linearGradient><linearGradient id="linearGradient_EB8B57_6"><stop offset="0" stop-color="#007664" /><stop offset="1" stop-color="#258E7A" stop-opacity="0" /></linearGradient><radialGradient id="radialGradient_GkhI-4d6" cx="846.39" cy="512.203" fx="846.39" fy="512.203" gradientTransform="matrix(.96120395 -.27583868 .41403385 1.44276712 -179.193 6.817)" gradientUnits="userSpaceOnUse" r="131.659" xlink:href="#linearGradient_EB8B57_6" /><linearGradient id="linearGradient_zBlnTEW0" gradientUnits="userSpaceOnUse" x1="667.066" x2="826.678" y1="599.278" y2="510.723"><stop offset=".133" stop-color="#007664" /><stop offset="1" stop-color="#258E7A" stop-opacity="0" /></linearGradient><radialGradient id="radialGradient_12VioUBT" cx="1044.515" cy="325.084" fx="1044.515" fy="325.084" gradientTransform="matrix(-.68635165 .72726983 -.74108796 -.69939234 2002.302 -207.229)" r="68.739" xlink:href="#radialGradient_GkhI-4d6" /><linearGradient id="linearGradient_wEkqzoBa"><stop offset="0" stop-color="#005B4A" /><stop offset="1" stop-color="#00715F" stop-opacity="0" /></linearGradient><linearGradient id="linearGradient_zJIPydW_" gradientUnits="userSpaceOnUse" x1="1083.14" x2="1094.247" xlink:href="#linearGradient_wEkqzoBa" y1="316.072" y2="239.73" /><linearGradient id="linearGradient_re_JX-wU" gradientUnits="userSpaceOnUse" x1="1168.225" x2="1151.674" xlink:href="#linearGradient_EB8B57_6" y1="789.294" y2="555.643" /><radialGradient id="radialGradient_KU5rBfgV" cx="1143.154" cy="324.511" fx="1143.154" fy="324.511" r="47.519" xlink:href="#radialGradient_GkhI-4d6" /><linearGradient id="linearGradient_4_DJdM-0" x1="931.598" x2="965.295" xlink:href="#linearGradient_zJIPydW_" y1="719.098" y2="719.098" /><linearGradient id="linearGradient_v3v2PXne" x1="894.538" x2="968.455" xlink:href="#linearGradient_zJIPydW_" y1="668.203" y2="668.906" /><linearGradient id="linearGradient_K8dx0sm1" x1="1364.923" x2="1356.729" xlink:href="#linearGradient_zJIPydW_" y1="227.667" y2="180.914" /><radialGradient id="radialGradient_kDZA09hy" cx="1375.523" cy="105.882" gradientTransform="matrix(.00020944 .99999998 -1.50499997 .00031521 1534.59 -1269.673)" gradientUnits="userSpaceOnUse" r="51.585"><stop offset=".347" stop-color="#005B4A" id="pvIcHZ1RIuV0z28StouOr" /><stop offset="1" stop-color="#00715F" id="v1rGUJ6d_RjiQ2TnzFdQ" stop-opacity="0" /></radialGradient><radialGradient id="radialGradient_A3H5iK8c" cx="1111.303" cy="169.253" gradientTransform="matrix(-.00040143 .99999992 -.70399994 -.0002826 1230.945 -942.002)" gradientUnits="userSpaceOnUse" r="16.01"><stop offset=".615" stop-color="#399E89" id="iE_V2haM9RxS1pSqFefrM" stop-opacity="0.96" /><stop offset=".832" stop-color="#76D8C2" id="D9HqK8AjYezH3JADxpsL" stop-opacity="0" /><stop offset="1" stop-color="#369B87" id="hoWGqF53BF-re_MTpXkmB" /></radialGradient><linearGradient id="linearGradient_H7XM8DEf" gradientTransform="matrix(.96243628 .27150764 -.27150764 .96243628 87.695 -295.363)" gradientUnits="userSpaceOnUse" x1="1101.226" x2="1121.032" y1="172.163" y2="166.444"><stop offset="0" stop-color="#369B87" stop-opacity="0" /><stop offset="1" stop-color="#006F5C" stop-opacity="0.7" /></linearGradient><linearGradient id="linearGradient_6IyHhjes" gradientUnits="userSpaceOnUse" x1="1167.143" x2="1147.207" y1="170.8" y2="97.82"><stop offset="0" stop-color="#006F5C" /><stop offset=".24" stop-color="#369B87" /><stop offset=".676" stop-color="#006F5C" /></linearGradient><radialGradient id="radialGradient_3TUZlRQo" cx="1223.024" cy="137.726" gradientTransform="matrix(-.00661475 .99997812 -.69098488 -.00457079 1326.314 -1084.641)" gradientUnits="userSpaceOnUse" r="35.6"><stop offset=".71" stop-color="#399E89" id="WkCv9loV02Dfoq5t1U1mj" stop-opacity="0.96" /><stop offset=".861" stop-color="#76D8C2" id="zhXwkrNxErKFwHd1kDfa" stop-opacity="0" /><stop offset="1" stop-color="#369B87" id="tWTH7C103fFWcA6ZtVnFP" /></radialGradient><linearGradient id="linearGradient_HxVBHMzD" gradientTransform="matrix(.96243628 .27150764 -.27150764 .96243628 83.332 -326.879)" x1="1203.508" x2="1251.324" xlink:href="#linearGradient_H7XM8DEf" y1="143.52" y2="129.324" /><linearGradient id="linearGradient_Xf0h4f1y" gradientUnits="userSpaceOnUse" x1="1321.371" x2="1290.731" y1="149.818" y2="37.654"><stop offset="0" stop-color="#006F5C" /><stop offset=".369" stop-color="#369B87" /><stop offset="1" stop-color="#006F5C" /></linearGradient><radialGradient id="radialGradient_gTR6Q0QH" cx="1415.934" cy="83.306" fx="1415.934" fy="83.306" gradientTransform="matrix(-.025828 .9996664 -.69176915 -.01787298 1510.126 -1330.667)" gradientUnits="userSpaceOnUse" r="54.427"><stop offset=".802" stop-color="#399E89" id="wB9rJVZ_i0Tagi1Kez20" stop-opacity="0.96" /><stop offset=".897" stop-color="#76D8C2" id="yBZCwM_WIp88SLgdW-M8r" stop-opacity="0" /><stop offset="1" stop-color="#369B87" id="X3CV4sA_UCERh_Sv7Sjjf" /></radialGradient><linearGradient id="linearGradient_uvN1oQF4" gradientTransform="matrix(.96243628 .27150764 -.27150764 .96243628 75.803 -381.299)" x1="1382.107" x2="1455.211" xlink:href="#linearGradient_H7XM8DEf" y1="92.684" y2="72.418" /><linearGradient id="linearGradient_QZ-cjz18" gradientUnits="userSpaceOnUse" x1="1452.228" x2="1413.965" y1="123.787" y2="-16.283"><stop offset="0" stop-color="#006F5C" /><stop offset=".434" stop-color="#369B87" /><stop offset="1" stop-color="#006F5C" /></linearGradient><radialGradient id="radialGradient_p_-YFJiE" cx="1491.341" cy="62.034" fx="1491.341" fy="62.034" gradientTransform="matrix(.99986514 -.01642281 .02369811 1.44280539 -1.269 -2.998)" r="43.991" xlink:href="#radialGradient_gTR6Q0QH" /><linearGradient id="linearGradient_qYHtq9yb" gradientTransform="matrix(.96243628 .27150764 -.27150764 .96243628 72.86 -402.571)" x1="1451.143" x2="1548.135" xlink:href="#linearGradient_H7XM8DEf" y1="73.217" y2="46.235" /><linearGradient id="linearGradient_ruCnrXVg" gradientTransform="matrix(.96243628 .27150764 -.27150764 .96243628 72.86 -402.571)" gradientUnits="userSpaceOnUse" x1="1415.197" x2="1489.041" y1="143.891" y2="64.507"><stop offset="0" stop-color="#9EFFE9" /><stop offset="1" stop-color="#9EFFE9" stop-opacity="0" /></linearGradient><radialGradient id="radialGradient_NxAo7LaP" cx="-1943.58" cy="-1556.556" gradientTransform="matrix(.80796932 .58922456 -.91683342 1.25720026 1631.403 3133.005)" gradientUnits="userSpaceOnUse" r="31.092"><stop offset="0" stop-color="#AFFFFA" id="vff9VHgNjyxYH2Fr6AkZ0" /><stop offset="1" stop-color="#AFFFFA" id="f1KpnSJWEbP16S-ZFg0D" stop-opacity="0" /></radialGradient><linearGradient id="linearGradient_1XwAAt2w" gradientUnits="userSpaceOnUse" x1="1292.333" x2="1266.461" xlink:href="#linearGradient_wEkqzoBa" y1="97.688" y2="49.055" /><linearGradient id="linearGradient_zaL0u453" gradientUnits="userSpaceOnUse" x1="1323.021" x2="1290.245" y1="83.586" y2="39.311"><stop offset="0" stop-color="#005B4A" /><stop offset=".682" stop-color="#00715F" stop-opacity="0" /></linearGradient><linearGradient id="linearGradient_cUPrwLqs" x1="1352.844" x2="1320.745" xlink:href="#linearGradient_zaL0u453" y1="74.814" y2="30.046" /><linearGradient id="linearGradient_YQJFPEM4" x1="1387.457" x2="1352.944" xlink:href="#linearGradient_zaL0u453" y1="71.443" y2="34.158" /><linearGradient id="linearGradient_Kw0ervVz" x1="1277.208" x2="1296.723" xlink:href="#linearGradient_zJIPydW_" y1="189.893" y2="154.061" /><linearGradient id="linearGradient_lGfWv4GG" gradientUnits="userSpaceOnUse" x1="894.786" x2="1065.728" y1="874.735" y2="1329.488"><stop offset=".052" stop-color="#54B6A1" stop-opacity="0.5" /><stop offset=".729" stop-color="#004E3E" stop-opacity="0" /><stop offset="1" stop-color="#003728" /></linearGradient><linearGradient id="linearGradient_zOB4ppfv" gradientUnits="userSpaceOnUse" x1="1140.861" x2="896.652" y1="1643.925" y2="881.801"><stop offset="0" stop-color="#54B6A1" stop-opacity="0.1" /><stop offset=".554" stop-color="#003728" stop-opacity="0.5" /><stop offset="1" stop-color="#002A1C" /></linearGradient><g clip-path="url(#clipPath_K7cqr1v6)" fill="none" id="qCiglNGP3QtTo0YKXK75"><g id="MPYQ6NNUNTQypgxkawr0M" opacity=".3" fill="none" stroke="#AFFFFA" style="stroke-linecap:round;stroke-linejoin:round;stroke-width:4;"><path d="m-469.126 1036.094 489.671 912.751" id="Bp63EmIxlp1s7RF35K8Ri" /><path d="m-354.467 974.582 489.671 912.751" id="M1ST4nXgjLEC-Jkvnhqi" /></g></g><path d="m1777.839 573.435-904.218 238.093-873.621 333.296 1062.825 120.222z" fill="#004E3E" id="ZVLWn1yUega5RqPflbNu6" /><path d="m1777.839 573.435-904.218 238.093-873.621 333.296 1062.825 120.222z" fill="url(#linearGradient_mot0ShTC)" id="ZoEwQ35HZr_E5ALIti0EN" /><path d="m834.193 370.187h32.17v737.426h-32.17z" fill="url(#linearGradient_oWZueu9M)" transform="matrix(.95203865 -.30597779 .30597779 .95203865 -185.308 295.608)" id="qbp1Ktzw3n999awDYXhsB" /><path d="m967.944 1069.935 379.886-234.844-603.142-459.801z" fill="#004E3E" id="Hs7bStAGBrlk4ipUu3t_t" /><path d="m967.944 1069.935 379.886-234.844-603.142-459.801z" fill="url(#linearGradient_uSpSN5Ke)" id="aOKQ_qiW0eLdjTFWOvd9r" /><path d="m967.944 1069.935 379.886-234.844-603.142-459.801z" fill="url(#linearGradient_sP-Enc45)" id="Y1Ge87FpNXSA2kjqHxBsj" /><path d="m967.944 1069.935 379.886-234.844-603.142-459.801z" fill="url(#linearGradient_l9OyrVmY)" id="lDsbkYzhWW-xbdup1ioyW" /><path d="m947.51 1076.503-445.576 30.455 222.26-724.903z" fill="#004E3E" id="lSUBVo3qbCOiVyt1PkHoi" /><path d="m947.51 1076.503-445.576 30.455 222.26-724.903z" fill="url(#linearGradient_LPb9JGm-)" id="CWEfQy4MV-twCaHP_ljTb" /><path d="m947.51 1076.503-445.576 30.455 222.26-724.903z" fill="url(#linearGradient_y7WlYum2)" id="aC_XoeUNT1Of1NkKftx83" /><path d="m947.51 1076.503-445.576 30.455 222.26-724.903z" fill="url(#linearGradient_XPRixWyS)" id="igOxO9YFm9I6LwpZ-RGHR" /><g clip-path="url(#clipPath_dFGv33ZP)" fill="none" id="CoZlb24TN-Ym5YJGeltB"><g fill="#AFFFFA" opacity=".1" id="ZmicdKMPszbDz7-3Weggv"><path d="m530.253 1447.146c-.847 0-1.632-.541-1.904-1.39l-316.355-986.312c-.338-1.052.241-2.178 1.293-2.515 1.049-.337 2.178.241 2.516 1.293l316.355 986.312c.338 1.052-.241 2.178-1.293 2.515-.203.065-.409.096-.611.096z" fill="#AFFFFA" id="qb9_vwHd_ciVzlstj7YEJ" /><path d="m654.154 1407.405c-.847 0-1.632-.541-1.904-1.39l-316.357-986.311c-.338-1.052.241-2.178 1.294-2.515 1.048-.34 2.177.242 2.515 1.293l316.356 986.312c.338 1.052-.241 2.178-1.293 2.515-.203.065-.409.096-.611.096z" fill="#AFFFFA" id="S40xdeT-KIjSj5j9gqTg_" /><path d="m778.052 1367.665c-.846 0-1.631-.541-1.903-1.39l-316.356-986.312c-.338-1.052.241-2.178 1.293-2.515 1.053-.341 2.178.242 2.516 1.293l316.356 986.312c.338 1.052-.241 2.178-1.294 2.515-.202.065-.408.096-.611.096z" fill="#AFFFFA" id="Pre6HyHc-oaPt0nuD8sEv" /><path d="m901.952 1327.925c-.846 0-1.631-.541-1.903-1.39l-316.355-986.312c-.338-1.052.241-2.178 1.293-2.515 1.054-.339 2.178.242 2.516 1.293l316.355 986.312c.338 1.052-.241 2.178-1.293 2.515-.203.065-.409.096-.612.096z" fill="#AFFFFA" id="YvA7OK6CHzpyLoJEJMB" /><path d="m1025.853 1288.184c-.847 0-1.632-.541-1.904-1.39l-316.356-986.312c-.338-1.052.241-2.178 1.294-2.515 1.047-.341 2.177.242 2.515 1.293l316.356 986.312c.338 1.052-.241 2.178-1.293 2.515-.203.065-.409.096-.611.096z" fill="#AFFFFA" id="ydwV3ThYR2K1anh-CiDR8" /><path d="m1149.753 1248.444c-.847 0-1.632-.541-1.904-1.39l-316.356-986.312c-.338-1.052.241-2.178 1.293-2.515 1.05-.337 2.178.241 2.516 1.293l316.356 986.312c.338 1.052-.241 2.178-1.294 2.515-.202.065-.408.096-.61.096z" fill="#AFFFFA" id="mR_gex_c4x06pt9rB7ahi" /><path d="m1273.652 1208.703c-.847 0-1.632-.541-1.904-1.39l-316.356-986.311c-.338-1.052.241-2.178 1.293-2.515 1.05-.337 2.178.242 2.516 1.293l316.355 986.312c.338 1.052-.241 2.178-1.293 2.515-.203.065-.409.096-.611.096z" fill="#AFFFFA" id="TJAheh1jS8t7iKJM6meU5" /><path d="m1397.552 1168.963c-.847 0-1.632-.541-1.904-1.39l-316.356-986.312c-.338-1.052.241-2.178 1.294-2.515 1.048-.341 2.177.242 2.515 1.293l316.356 986.312c.338 1.052-.241 2.178-1.293 2.515-.203.065-.409.096-.611.096z" fill="#AFFFFA" id="PVOVGsJrw0jczlgh2YzXX" /><path d="m1521.451 1129.222c-.846 0-1.631-.541-1.903-1.39l-316.356-986.312c-.338-1.052.241-2.178 1.293-2.515 1.054-.34 2.178.242 2.516 1.293l316.356 986.312c.338 1.052-.241 2.178-1.294 2.515-.202.065-.408.096-.611.096z" fill="#AFFFFA" id="HEHjiBj7oU5Lepcg7z6PP" /><path d="m213.115 458.39c-.847 0-1.632-.541-1.904-1.39-.338-1.052.241-2.178 1.293-2.515l991.197-317.923c1.051-.341 2.178.242 2.516 1.293.338 1.052-.241 2.178-1.293 2.515l-991.198 317.924c-.203.065-.409.096-.611.096z" fill="#AFFFFA" id="X_PqKA4l_H9I7ssDlKBVK" /><path d="m252.855 582.29c-.847 0-1.632-.541-1.904-1.39-.338-1.052.241-2.178 1.293-2.515l991.197-317.923c1.053-.34 2.178.242 2.516 1.293s-.241 2.178-1.293 2.515l-991.198 317.924c-.203.065-.409.096-.611.096z" fill="#AFFFFA" id="gK3m2aAaTGInajoMVkgG_" /><path d="m292.595 706.19c-.847 0-1.632-.541-1.904-1.39-.338-1.052.241-2.178 1.293-2.515l991.197-317.923c1.054-.341 2.178.242 2.516 1.293.338 1.052-.241 2.178-1.293 2.515l-991.197 317.923c-.203.065-.409.096-.611.096z" fill="#AFFFFA" id="nB6kOTLV8qK5QkeCqPuSu" /><path d="m332.336 830.09c-.847 0-1.632-.541-1.904-1.39-.338-1.052.241-2.178 1.293-2.515l991.197-317.923c1.053-.34 2.178.242 2.516 1.293s-.241 2.178-1.293 2.515l-991.197 317.923c-.203.065-.409.096-.611.096z" fill="#AFFFFA" id="ZgZM6hQWQA_jiHwyLNks" /><path d="m372.076 953.99c-.847 0-1.632-.541-1.904-1.39-.338-1.052.241-2.178 1.293-2.515l991.197-317.923c1.054-.341 2.178.242 2.516 1.293.338 1.052-.241 2.178-1.293 2.515l-991.197 317.923c-.203.065-.409.096-.611.096z" fill="#AFFFFA" id="kWXwQJJuABNHno7wnJ1OA" /><path d="m411.816 1077.889c-.847 0-1.632-.541-1.904-1.39-.338-1.052.241-2.178 1.293-2.515l991.198-317.923c1.052-.34 2.178.242 2.516 1.293s-.241 2.178-1.293 2.515l-991.198 317.923c-.203.065-.409.096-.611.096z" fill="#AFFFFA" id="X4No89AtxNWxuG9-sv" /><path d="m451.557 1201.789c-.847 0-1.632-.541-1.904-1.39-.338-1.052.241-2.178 1.293-2.515l991.197-317.923c1.053-.341 2.178.242 2.516 1.293.338 1.052-.241 2.178-1.293 2.515l-991.197 317.923c-.203.065-.409.096-.611.096z" fill="#AFFFFA" id="rf_2Lz87rUC3DOlOmLPnM" /><path d="m491.297 1325.689c-.847 0-1.632-.541-1.904-1.39-.338-1.052.241-2.178 1.293-2.515l991.197-317.923c1.052-.339 2.178.242 2.516 1.293s-.241 2.178-1.293 2.515l-991.197 317.923c-.203.065-.409.096-.611.096z" fill="#AFFFFA" id="Ig2VQ-nlVk2h2b_xlaHP0" /><path d="m531.038 1449.588c-.847 0-1.632-.541-1.904-1.39-.338-1.052.241-2.178 1.293-2.515l991.197-317.923c1.053-.341 2.178.242 2.516 1.293.338 1.052-.241 2.178-1.293 2.515l-991.197 317.923c-.203.065-.409.096-.611.096z" fill="#AFFFFA" id="sQRj-kiNMv7ErH5OFOZGO" /></g></g><g clip-path="url(#clipPath_4kdOxydB)" fill="none" id="rXj9Bte2xhX3iqUr5MSyD"><g fill="#AFFFFA" opacity=".1" id="gdO1QEeHzsSwXi8rbuyfM"><path d="m530.253 1447.146c-.847 0-1.632-.541-1.904-1.39l-316.355-986.312c-.338-1.052.241-2.178 1.293-2.515 1.049-.337 2.178.241 2.516 1.293l316.355 986.312c.338 1.052-.241 2.178-1.293 2.515-.203.065-.409.096-.611.096z" fill="#AFFFFA" id="cYEbK56UtpK4Y2tVUrmM8" /><path d="m654.154 1407.405c-.847 0-1.632-.541-1.904-1.39l-316.357-986.311c-.338-1.052.241-2.178 1.294-2.515 1.048-.34 2.177.242 2.515 1.293l316.356 986.312c.338 1.052-.241 2.178-1.293 2.515-.203.065-.409.096-.611.096z" fill="#AFFFFA" id="bw9ktPAvGXwgz-_EPs32e" /><path d="m778.052 1367.665c-.846 0-1.631-.541-1.903-1.39l-316.356-986.312c-.338-1.052.241-2.178 1.293-2.515 1.053-.341 2.178.242 2.516 1.293l316.356 986.312c.338 1.052-.241 2.178-1.294 2.515-.202.065-.408.096-.611.096z" fill="#AFFFFA" id="E1zLZ3CEvj8gcRolENyJB" /><path d="m901.952 1327.925c-.846 0-1.631-.541-1.903-1.39l-316.355-986.312c-.338-1.052.241-2.178 1.293-2.515 1.054-.339 2.178.242 2.516 1.293l316.355 986.312c.338 1.052-.241 2.178-1.293 2.515-.203.065-.409.096-.612.096z" fill="#AFFFFA" id="kU4u7KXwJZGzDPJBQ412v" /><path d="m1025.853 1288.184c-.847 0-1.632-.541-1.904-1.39l-316.356-986.312c-.338-1.052.241-2.178 1.294-2.515 1.047-.341 2.177.242 2.515 1.293l316.356 986.312c.338 1.052-.241 2.178-1.293 2.515-.203.065-.409.096-.611.096z" fill="#AFFFFA" id="NRcw8a3e1El-qF_tQpasW" /><path d="m1149.753 1248.444c-.847 0-1.632-.541-1.904-1.39l-316.356-986.312c-.338-1.052.241-2.178 1.293-2.515 1.05-.337 2.178.241 2.516 1.293l316.356 986.312c.338 1.052-.241 2.178-1.294 2.515-.202.065-.408.096-.61.096z" fill="#AFFFFA" id="qBGZojRpQLTmZmUNk49MD" /><path d="m1273.652 1208.703c-.847 0-1.632-.541-1.904-1.39l-316.356-986.311c-.338-1.052.241-2.178 1.293-2.515 1.05-.337 2.178.242 2.516 1.293l316.355 986.312c.338 1.052-.241 2.178-1.293 2.515-.203.065-.409.096-.611.096z" fill="#AFFFFA" id="I49VEvDZD1hDdLxFo6VbK" /><path d="m1397.552 1168.963c-.847 0-1.632-.541-1.904-1.39l-316.356-986.312c-.338-1.052.241-2.178 1.294-2.515 1.048-.341 2.177.242 2.515 1.293l316.356 986.312c.338 1.052-.241 2.178-1.293 2.515-.203.065-.409.096-.611.096z" fill="#AFFFFA" id="zrX72lCXOtERpHpgYA0Jp" /><path d="m1521.451 1129.222c-.846 0-1.631-.541-1.903-1.39l-316.356-986.312c-.338-1.052.241-2.178 1.293-2.515 1.054-.34 2.178.242 2.516 1.293l316.356 986.312c.338 1.052-.241 2.178-1.294 2.515-.202.065-.408.096-.611.096z" fill="#AFFFFA" id="flHj4N74ZFGzTXBjjao8v" /><path d="m213.115 458.39c-.847 0-1.632-.541-1.904-1.39-.338-1.052.241-2.178 1.293-2.515l991.197-317.923c1.051-.341 2.178.242 2.516 1.293.338 1.052-.241 2.178-1.293 2.515l-991.198 317.924c-.203.065-.409.096-.611.096z" fill="#AFFFFA" id="Kc7Lebuma5gwpNpslOTtb" /><path d="m252.855 582.29c-.847 0-1.632-.541-1.904-1.39-.338-1.052.241-2.178 1.293-2.515l991.197-317.923c1.053-.34 2.178.242 2.516 1.293s-.241 2.178-1.293 2.515l-991.198 317.924c-.203.065-.409.096-.611.096z" fill="#AFFFFA" id="T5R6JyQ34V635UjQa7DJG" /><path d="m292.595 706.19c-.847 0-1.632-.541-1.904-1.39-.338-1.052.241-2.178 1.293-2.515l991.197-317.923c1.054-.341 2.178.242 2.516 1.293.338 1.052-.241 2.178-1.293 2.515l-991.197 317.923c-.203.065-.409.096-.611.096z" fill="#AFFFFA" id="l1onWwB2YqWzrMr7lCs9a" /><path d="m332.336 830.09c-.847 0-1.632-.541-1.904-1.39-.338-1.052.241-2.178 1.293-2.515l991.197-317.923c1.053-.34 2.178.242 2.516 1.293s-.241 2.178-1.293 2.515l-991.197 317.923c-.203.065-.409.096-.611.096z" fill="#AFFFFA" id="fy-t7sByru2ZWOpys1YcL" /><path d="m372.076 953.99c-.847 0-1.632-.541-1.904-1.39-.338-1.052.241-2.178 1.293-2.515l991.197-317.923c1.054-.341 2.178.242 2.516 1.293.338 1.052-.241 2.178-1.293 2.515l-991.197 317.923c-.203.065-.409.096-.611.096z" fill="#AFFFFA" id="vA1Mxfm5dvlQWygzOH4WO" /><path d="m411.816 1077.889c-.847 0-1.632-.541-1.904-1.39-.338-1.052.241-2.178 1.293-2.515l991.198-317.923c1.052-.34 2.178.242 2.516 1.293s-.241 2.178-1.293 2.515l-991.198 317.923c-.203.065-.409.096-.611.096z" fill="#AFFFFA" id="N06dPr893TY4EmkHfHcVs" /><path d="m451.557 1201.789c-.847 0-1.632-.541-1.904-1.39-.338-1.052.241-2.178 1.293-2.515l991.197-317.923c1.053-.341 2.178.242 2.516 1.293.338 1.052-.241 2.178-1.293 2.515l-991.197 317.923c-.203.065-.409.096-.611.096z" fill="#AFFFFA" id="pcek36h_vcI20pWbteCLF" /><path d="m491.297 1325.689c-.847 0-1.632-.541-1.904-1.39-.338-1.052.241-2.178 1.293-2.515l991.197-317.923c1.052-.339 2.178.242 2.516 1.293s-.241 2.178-1.293 2.515l-991.197 317.923c-.203.065-.409.096-.611.096z" fill="#AFFFFA" id="MVePNPerqO4lSZpXRth" /><path d="m531.038 1449.588c-.847 0-1.632-.541-1.904-1.39-.338-1.052.241-2.178 1.293-2.515l991.197-317.923c1.053-.341 2.178.242 2.516 1.293.338 1.052-.241 2.178-1.293 2.515l-991.197 317.923c-.203.065-.409.096-.611.096z" fill="#AFFFFA" id="Yvmnl7cPN1oG8x_AK9I0O" /></g></g><path d="m1313.997 1038.321-29.131 85.657c3.263 80.713-115.196 83.261-123.514 18.051 2.66-32.648 10.489-65.785 17.805-89.521 7.316-23.737 130.097-35.144 134.841-14.187z" fill="#00715F" id="Y29oXMdI446lW3UVciO9M" /><path d="m1109.621 655.041c162.621 80.236 231.956 110.294 251.824 181.092 14.108 50.273-64.93 255.52-64.93 255.52-5.547 21.391-158.553 3.06-155.489-19.988 6.964-42.334 35.921-133.692 57.661-182.425-49.144-20.182-173.739-67.277-228.43-89.746 0 0 61.301-182.97 139.365-144.454z" fill="#A4FFEE" id="tcoUdj7n_YUmmB0AILg3y" /><path d="m1109.621 655.041c162.621 80.236 231.956 110.294 251.824 181.092 14.108 50.273-64.93 255.52-64.93 255.52-5.547 21.391-158.553 3.06-155.489-19.988 6.964-42.334 35.921-133.692 57.661-182.425-49.144-20.182-173.739-67.277-228.43-89.746 0 0 61.301-182.97 139.365-144.454z" fill="url(#linearGradient_o-4crAWf)" id="U9yIi_egZBvy9BdBmghzo" /><path d="m1363.966 1137.831c-29.482-10.551-50.516-16.988-79.1-13.852 0 0-30.652 44.899-70.187 49.21-34.777 3.792-53.327-31.159-53.327-31.159-17.304 36.71-14.065 74.748-.141 113.478l298.171-95.637c-9.372-24.119-55.754-51.406-95.416-22.04z" fill="#002A1C" id="UfagikqBTC6ssIZ7SNf9" /><rect fill="#A4FFEE" height="28.301" rx="13.334" transform="matrix(-.95222005 .30541279 -.30541279 -.95222005 2939.389 1982.466)" width="340.136" x="1144.55" y="1207.013" id="jC22W7G0YoQBaTtOCwa_" /><rect fill="url(#linearGradient_jmd_F6LJ)" height="28.301" rx="13.334" transform="matrix(-.95222005 .30541279 -.30541279 -.95222005 2939.389 1982.466)" width="340.136" x="1144.55" y="1207.013" id="DsZzk8Iy9SKSUYipb_YFb" /><path d="m1302.279 1159.047c-.366 0-.738-.037-1.111-.113-2.976-.61-4.893-3.517-4.282-6.493l7.281-35.503c.609-2.975 3.517-4.893 6.493-4.283s4.893 3.517 4.282 6.493l-7.281 35.503c-.533 2.603-2.825 4.396-5.382 4.396z" fill="#54B6A1" id="aXYPY_qMRDeIi5WpbmyGd" /><path d="m1356.439 1167.395c-.366 0-.738-.037-1.111-.113-2.976-.61-4.893-3.517-4.282-6.493l7.282-35.503c.61-2.976 3.518-4.893 6.493-4.283s4.893 3.517 4.282 6.493l-7.282 35.503c-.534 2.603-2.825 4.396-5.382 4.396z" fill="#54B6A1" id="MR3q6eMedguPCxZiYPj_B" /><path d="m1310.954 219.136c1.295 51.95 5.047 103.917 9.054 152.975-13.215-10.401-83.026-63.19-127.026-77.19-45.66-14.528-69-21-96.913-21.168-69.867-.422-21.611 108.544 46.62 160.254 68.232 51.71 211.547 140.264 284.424 80.165 80.026-65.995 28.245-219.907-.01-261.001 14.456-21.564 6.958-45.444 6.958-45.444-2.316-25.574-125.84-15.985-123.109 11.411z" fill="#258E7A" id="q9xquij1WhxlPfWUR_KCq" /><path d="m1310.954 219.136c1.295 51.95 5.047 103.917 9.054 152.975-13.215-10.401-83.026-63.19-127.026-77.19-45.66-14.528-69-21-96.913-21.168-69.867-.422-21.611 108.544 46.62 160.254 68.232 51.71 211.547 140.264 284.424 80.165 80.026-65.995 28.245-219.907-.01-261.001 14.456-21.564 6.958-45.444 6.958-45.444-2.316-25.574-125.84-15.985-123.109 11.411z" fill="url(#linearGradient_Hr5NT8gT)" id="GaGnJMrHmyWgT72H6Kr" /><path d="m1327.046 436.899c-.978 0-1.832-.718-1.977-1.714-.045-.313-4.553-31.626-7.055-62.914-.089-1.101.732-2.065 1.834-2.153 1.089-.094 2.064.733 2.152 1.834 2.492 31.157 6.982 62.349 7.027 62.66.158 1.093-.6 2.108-1.693 2.266-.097.014-.193.021-.289.021z" fill="#004535" id="E8LOd5byTS1wbb5PaNr" /><path d="m1047.579 276.602c29.672.692 67.283-1.884 73.593 8.425l15.155 383.163c-90.417 58.273-164.178 66.418-235.884 68.378l147.136-459.967z" fill="#9EFFE9" id="SA_l4CR7XKZEDAooylX2" /><path d="m1047.579 276.602c29.883 3.94 58.768-3.284 73.593 8.425l15.155 383.163c-90.417 58.273-164.178 66.418-235.884 68.378l147.136-459.967z" fill="url(#linearGradient_siHqCKEb)" id="xAC-otYoomg-BCrFqhtSJ" /><path d="m704.397 1191.148c1.509 8.961-65.074 115.666-65.074 115.666-49.338 23.001-67.645-23.346-91.897-57.271 0 0 32.775-107.054 46.176-111.946 27.013-9.86 107.709 35.226 110.795 53.551z" fill="#00715F" id="K2ceX0Xx3v3jxgnb9lyUU" /><path d="m1016.586 733.937-279.8 510.069c-16.272 25.277-162.65-71.43-151.538-95.909 24.203-88.726 64.334-167.735 115.464-203.648l136.535-248.57c111.863-39.442 218.795-73.948 179.339 38.059z" fill="#A4FFEE" id="gNI07Zo0EMAvYpRgnFS7t" /><path d="m1016.586 733.937-279.8 510.069c-16.272 25.277-162.65-71.43-151.538-95.909 24.203-88.726 64.334-167.735 115.464-203.648l136.535-248.57c111.863-39.442 218.795-73.948 179.339 38.059z" fill="url(#linearGradient_CZFSeOmD)" id="bDM2OyDvl-HmdNRGY4geC" /><path d="m649.84 1290.147s-54.353-12.289-73.368-48.348c-16.726-31.719-8.383-44.134-5.098-62.681-35.195 1.79-65.664 18.228-93.524 42.752 0 0 69.345 136.547 132.777 167.671 63.432 31.123 115.494 8.101 115.494 8.101 3.995-24.491-19.178-68.285-63.378-69.483 0 0-5.715-27.938-12.902-38.013z" fill="#002A1C" id="IU6SaJ4xhdmUGosZ68qpL" /><path d="m719.086 1425.795c-29.396-2.426-97.623-8.54-141.776-37.629-31.695-20.881-121.468-147.382-121.468-147.382-5.081-6.193-4.179-15.333 2.015-20.414 6.193-5.081 15.333-4.179 20.414 2.014 28.019 35.321 84.934 123.919 116.978 144.558 29.35 18.904 82.687 27.518 130.223 30.554 7.814 1.764 12.72 9.528 10.956 17.342-1.763 7.814-9.528 12.72-17.342 10.956z" fill="#A4FFEE" id="Lo4OL2sSSkwvrX9q6PUB" /><path d="m719.086 1425.795c-29.396-2.426-97.623-8.54-141.776-37.629-31.695-20.881-121.468-147.382-121.468-147.382-5.081-6.193-4.179-15.333 2.015-20.414 6.193-5.081 15.333-4.179 20.414 2.014 28.019 35.321 84.934 123.919 116.978 144.558 29.35 18.904 82.687 27.518 130.223 30.554 7.814 1.764 12.72 9.528 10.956 17.342-1.763 7.814-9.528 12.72-17.342 10.956z" fill="url(#linearGradient_Pf9c1CKQ)" id="evn8gcqxUv5f8Q-vW2B6J" /><path d="m622.425 1314.443c-2.619 0-4.939-1.878-5.41-4.547-.526-2.992 1.472-5.844 4.463-6.371l36.586-6.444c2.981-.525 5.844 1.47 6.371 4.462.526 2.992-1.472 5.844-4.463 6.371l-36.586 6.444c-.322.057-.644.084-.961.084z" fill="#54B6A1" id="vLvxbIR8cc0K7NP63Bzox" /><path d="m647.427 1353.323c-1.314 0-2.633-.468-3.685-1.418-2.254-2.036-2.431-5.514-.395-7.768l24.901-27.568c2.034-2.254 5.515-2.431 7.768-.395 2.254 2.036 2.431 5.514.395 7.768l-24.901 27.568c-1.085 1.202-2.581 1.813-4.083 1.813z" fill="#54B6A1" id="JexkedJnw5U_SzeAlHnKt" /><path d="m889.907 341.566c-45.426 72.329-86.688 197.846-123.684 412.94 45.487 20.301 182.628 45.714 250.036 38.332 27.719-163.256 50.904-318.412 67.32-461.471z" fill="#258E7A" id="RJq6oaKFKFi-2QyA4XuOn" /><path d="m889.907 341.566c-45.426 72.329-86.688 197.846-123.684 412.94 45.487 20.301 182.628 45.714 250.036 38.332 27.719-163.256 50.904-318.412 67.32-461.471z" fill="url(#linearGradient_iCn75YYb)" id="unEyWrkTlPAJzpxihCPry" /><path d="m889.907 341.566c-45.426 72.329-86.688 197.846-123.684 412.94 45.487 20.301 182.628 45.714 250.036 38.332 27.719-163.256 50.904-318.412 67.32-461.471z" fill="url(#radialGradient_GkhI-4d6)" id="NlEcGITFmW5ryfDVsB0" /><path d="m958.502 588.384c-38.595-28.247-85.474-63.134-119.738-88.7 28.51-20.442 84.961-68.685 115.078-98.147 110.729-21.872 123.553-130.622 108.271-134.423-69.13-17.193-155.13-14.193-203.13 7.807-77.827 35.671-200.621 136.237-190.414 230.145 11.209 103.121 139.423 145.318 189.054 150.197 7.171 24.951 30.264 34.608 30.264 34.608 21.048 14.711 80.841-89.525 70.615-101.487z" fill="#258E7A" id="qqjoAiy3lNq_HSDYbiDx_" /><path d="m958.502 588.384c-38.595-28.247-85.474-63.134-119.738-88.7 28.51-20.442 84.961-68.685 115.078-98.147 110.729-21.872 123.553-130.622 108.271-134.423-69.13-17.193-155.13-14.193-203.13 7.807-77.827 35.671-200.621 136.237-190.414 230.145 11.209 103.121 139.423 145.318 189.054 150.197 7.171 24.951 30.264 34.608 30.264 34.608 21.048 14.711 80.841-89.525 70.615-101.487z" fill="url(#linearGradient_zBlnTEW0)" id="nwbARqno3PYq8xW2kmPUv" /><path d="m1052.346 333.012c18.067-32.407 17.864-63.885 9.767-65.898-148.704-29.449-114.492 74.991-92.023 114.941 22.468 39.951 97.074 92.371 113.489-50.688l-31.232 1.645z" fill="url(#radialGradient_12VioUBT)" id="G9_mIBYRi22QLTvdYe8xY" /><path d="m838.766 501.684c-.623 0-1.236-.29-1.627-.834-.644-.898-.438-2.147.46-2.791 20.118-14.425 58.679-46.311 85.957-71.079.82-.743 2.084-.681 2.825.136.743.817.682 2.083-.136 2.825-27.373 24.854-66.094 56.869-86.316 71.369-.353.253-.76.375-1.163.375z" fill="#004535" id="Zdc1A5tJTkKEggx_S4yFK" /><path d="m892.536 693.329c-2.054 0-3.927-.565-5.616-1.697-2.42-1.058-23.372-10.825-30.827-34.516-19.547-2.112-44.886-8.918-68.13-18.325-1.024-.415-1.519-1.581-1.104-2.604.413-1.023 1.579-1.52 2.604-1.104 23.442 9.486 48.997 16.286 68.356 18.19.816.08 1.5.65 1.727 1.438 6.809 23.688 28.894 33.222 29.115 33.316.131.055.257.124.372.205 4.797 3.353 13.412-1.38 24.254-13.332 11.1-12.235 23.839-31.509 33.247-50.301 10.227-20.425 12.585-32.417 10.448-34.916-.718-.839-.618-2.102.221-2.82.839-.717 2.103-.619 2.82.221 9.036 10.572-21.963 66.46-43.773 90.503-9.503 10.475-17.447 15.74-23.714 15.741z" fill="#004535" id="HtMJJHeyGu0YcXRf91c55" /><path d="m1058.609 221.384c-38.624-22.44-48.855-69.058-50.829-88.973-2.173-21.928 10.399-37.915 16.8-16.98 42.237-38.935 79.633-44.67 100.34-46.7 39.064-3.83 31.021 17.234 15.702 24.511 30.638-4.213 40.596 19.532 16.851 26.426 31.021 14.936 18.763 34.013-2.146 25.628-14.555 14.513-82.426 84.393-96.719 76.089z" fill="#002A1C" id="G1Wkpsabk9-sl6f6I1j" /><path d="m1153.345 136.374c17.18 72.578 5.251 125.167-44 109.907-.02.285 1.297 20.032 2.428 34.509.41 5.249 3.552 31.046-21.393 31.046s-36.354-31.807-35.54-39.9c2.933-29.155 4.793-55.907 3.686-76.01-12.361-.889-19.095-12.115-15.465-21.025 4.175-10.246 14.337-6.385 17.022-1.638 9.308 16.872 18.849 6.8 19.648-4.383 1.191-16.659.834-32.715.511-43.723 40.931-13.277 71.26-2.855 73.104 11.217z" fill="#00715F" id="RjS6aleH6J205RCL1QdRj" /><path d="m1153.345 136.374c17.18 72.578 5.251 125.167-44 109.907-.02.285 1.297 20.032 2.428 34.509.41 5.249 3.552 31.046-21.393 31.046s-36.354-31.807-35.54-39.9c2.933-29.155 4.793-55.907 3.686-76.01-12.361-.889-19.095-12.115-15.465-21.025 4.175-10.246 14.337-6.385 17.022-1.638 9.308 16.872 18.849 6.8 19.648-4.383 1.191-16.659.834-32.715.511-43.723 40.931-13.277 71.26-2.855 73.104 11.217z" fill="url(#linearGradient_zJIPydW_)" id="HG53nYH-MJ9b0b_A2IYx" /><path d="m1133.738 213.704c-.576 0-1.116-.041-1.615-.108-4.951-.661-9.584-4.354-12.71-10.13-.525-.971-.164-2.185.807-2.71.971-.527 2.186-.165 2.711.807 2.51 4.638 6.054 7.579 9.723 8.069 2.951.396 5.931-.869 8.591-3.659.763-.799 2.029-.829 2.827-.068.8.762.83 2.028.067 2.828-3.767 3.952-7.524 4.972-10.4 4.972z" fill="#00392A" id="ZdY0ENyrQwtbfQykdrW0X" /><path d="m1191.56 382.858c12.511 107.385 6.634 196.771 8.61 316.952l-86.08 77.089c10.708-163.874 20.384-304.193 7.082-445.532l70.388 51.49z" fill="#258E7A" id="Qr6O7mKZ8wmm3k-fl_ueg" /><path d="m1191.56 382.858c12.511 107.385 6.634 196.771 8.61 316.952l-86.08 77.089c10.708-163.874 20.384-304.193 7.082-445.532l70.388 51.49z" fill="url(#linearGradient_re_JX-wU)" id="mKx-UjIupZ09TbFh8sATy" /><path d="m1124.59 375.29s58.866 8.673 73.97-21.965-28.045-59.234-72.373-76.725c-7.609-8.003-3.197.864-11.204-2.424 6.255 14.17 3.575 25.027 6.188 57.191 2.014 21.67 3.418 43.922 3.418 43.922z" fill="url(#radialGradient_KU5rBfgV)" id="a9zRIo3dyTcNB6mC38isY" /><path d="m1121.171 331.367 39.579 10.986s-14.614-45.256-40.162-72.127c-3.341-3.514-6.777-6.53-10.259-9.086.568 8.823 1.206 16.865 1.509 20.434 9.333 25.512 9.333 49.793 9.333 49.793z" fill="#258E7A" id="C8JRPlr_HUVLHT-ICSHV" /><path d="m1198.558 477.885c-1.085 0-1.977-.869-1.999-1.959-.494-24.182-3.417-67.238-6.979-92.792-.153-1.094.61-2.104 1.704-2.257 1.087-.15 2.104.61 2.257 1.705 3.582 25.693 6.521 68.966 7.019 93.262.022 1.104-.854 2.018-1.959 2.041-.014 0-.028 0-.042 0z" fill="#004535" id="PUhl5bRNcwS3VKcj58YQx" /><path d="m1056.458 254.697c-4.714 2.699-8.547 6.329-11.132 10.61-15.894 26.318-16.149 81.467-16.149 81.467l54.402-15.406s-32.011-43.604-27.12-76.671z" fill="#258E7A" id="mgY_458K9hWdFS07exE" /><path d="m1029.176 348.774c-.432 0-.858-.14-1.21-.408-.5-.38-.793-.973-.79-1.602.011-2.274.442-56.006 16.438-82.492.571-.946 1.801-1.249 2.746-.678s1.249 1.8.678 2.746c-13.453 22.278-15.503 66.485-15.809 77.774l51.805-14.671c1.059-.3 2.168.316 2.47 1.379.301 1.063-.317 2.168-1.38 2.469l-54.402 15.406c-.18.051-.362.076-.545.076z" fill="#004535" id="cVtQ2JUVJKfPQTpLDKFa" /><path d="m952.449 747.886c-11.51-4.984-21.205-17.632-20.841-42.373.389-26.481 22.077-16.467 26.05-3.63 3.973 12.838 17.529 55.848-5.209 46.003z" fill="#00715F" id="XuSTJ9I7IJOb_RdW4TmzN" /><path d="m952.449 747.886c-11.51-4.984-21.205-17.632-20.841-42.373.389-26.481 22.077-16.467 26.05-3.63 3.973 12.838 17.529 55.848-5.209 46.003z" fill="url(#linearGradient_4_DJdM-0)" id="Pgly4ncrDUZw7WCklwpU" /><path d="m957.04 588.393c20.915 5.712 79.544 17.457 89.653 37.286 9.779 19.182 9.224 47.716 4.914 61.235-6.215 19.497-19.156 25.648-26.256 18.599-6.299 20.041-21.002 22.108-23.923 15.139-4.934 14.215-18.579 19.839-25.524 12.3-2.7 10.861-12.135 19.974-23.454 14.934-5.045-8.585-5.47-18.337-6.204-40.395-12.656-20.182-35.369-7.329-38.351-43.726 0 0-9.595-8.882-11.874-11.466 13.744-29.749 52.551-66.182 61.021-63.906z" fill="#00715F" id="kT3dWCl-VyZFtVmYMz1z" /><path d="m957.04 588.393c20.915 5.712 79.544 17.457 89.653 37.286 9.779 19.182 9.224 47.716 4.914 61.235-6.215 19.497-19.156 25.648-26.256 18.599-6.299 20.041-21.002 22.108-23.923 15.139-4.934 14.215-18.579 19.839-25.524 12.3-2.7 10.861-12.135 19.974-23.454 14.934-5.045-8.585-5.47-18.337-6.204-40.395-12.656-20.182-35.369-7.329-38.351-43.726 0 0-9.595-8.882-11.874-11.466 13.744-29.749 52.551-66.182 61.021-63.906z" fill="url(#linearGradient_v3v2PXne)" id="fO7s4DbFYLqo6WdGAoyoE" /><path d="m948.347 738.588c-.938 0-1.775-.663-1.961-1.619-1.316-6.765-1.673-15.409-2.122-28.862-3.648-5.592-8.15-8.311-12.093-10.232-.993-.484-1.406-1.681-.922-2.674s1.68-1.408 2.674-.921c4.556 2.221 9.783 5.401 14.016 12.15.188.299.293.643.305.996.451 13.571.793 22.222 2.068 28.78.211 1.084-.497 2.134-1.581 2.345-.129.025-.258.037-.384.037z" fill="#00392A" id="XB1ynw_SCY3VOmgq4E_Vp" /><path d="m1025.351 707.514c-.166 0-.335-.021-.503-.064-1.069-.277-1.711-1.369-1.434-2.438 5.396-20.811 4.562-43.327-2.126-57.363-.475-.997-.052-2.191.945-2.666.994-.474 2.19-.052 2.666.945 7.067 14.834 8.004 38.42 2.386 60.087-.233.901-1.045 1.499-1.935 1.499z" fill="#00392A" id="ur3R3RLHihMmSKCW2KTWC" /><path d="m1001.428 722.653c-.185 0-.372-.026-.559-.08-1.061-.308-1.671-1.417-1.363-2.478 5.93-20.445 2.903-44.865-1.907-60.901-.317-1.058.283-2.173 1.342-2.49s2.173.283 2.49 1.341c2.413 8.047 9.685 36.384 1.917 63.165-.254.875-1.053 1.443-1.92 1.443z" fill="#00392A" id="j2dz1cO-AeurvmnGjiGpo" /><path d="m975.905 734.952c-.155 0-.313-.018-.47-.056-1.074-.258-1.735-1.338-1.477-2.413 3.752-15.586 2.093-40.347-3.859-57.595-.36-1.044.194-2.183 1.238-2.543 1.044-.361 2.183.195 2.543 1.238 6.169 17.878 7.875 43.602 3.967 59.836-.221.917-1.04 1.532-1.942 1.532z" fill="#00392A" id="VBTHpLAgJC_V0P57mJoky" /><path d="m1324.7 218.073-5.334-36.172c-11.622-39.311-71.389-82.168-50.228-84.413 10.075-1.069 94.056-50.881 123.695-68.952 45.448 74.129 29.01 127.055 9.995 146.086 3.078 21.273 4.156 33.612 4.156 33.612-36.283 10.792-69.063 12.014-82.284 9.838z" fill="#00715F" id="F0Vu3-XVtpAc5pZfG-yOI" /><path d="m1324.7 218.073-5.334-36.172c-11.622-39.311-71.389-82.168-50.228-84.413 10.075-1.069 94.056-50.881 123.695-68.952 45.448 74.129 29.01 127.055 9.995 146.086 3.078 21.273 4.156 33.612 4.156 33.612-36.283 10.792-69.063 12.014-82.284 9.838z" fill="url(#linearGradient_K8dx0sm1)" id="n2sxJMSzBGwWL0R_qvPX" /><path d="m1324.7 218.073-5.334-36.172c-11.622-39.311-71.389-82.168-50.228-84.413 10.075-1.069 94.056-50.881 123.695-68.952 45.448 74.129 29.01 127.055 9.995 146.086 3.078 21.273 4.156 33.612 4.156 33.612-36.283 10.792-69.063 12.014-82.284 9.838z" fill="url(#radialGradient_kDZA09hy)" id="FQJEMwimOJX3TU617OjDK" /><ellipse cx="1111.303" cy="169.253" fill="#76D8C2" rx="11.194" ry="16.137" transform="matrix(.96243628 -.27150764 .27150764 .96243628 -4.21 308.078)" id="Kdhu8w2r6yKZ7lFSsrH" /><ellipse cx="1111.303" cy="169.253" fill="url(#radialGradient_A3H5iK8c)" rx="11.194" ry="16.137" transform="matrix(.96243628 -.27150764 .27150764 .96243628 -4.21 308.078)" id="QxElM_lzTjUqsvFu3EU7N" /><ellipse cx="1111.303" cy="169.253" fill="url(#linearGradient_H7XM8DEf)" rx="11.194" ry="16.137" transform="matrix(.96243628 -.27150764 .27150764 .96243628 -4.21 308.078)" id="qIvTkYKSz1Ev33UdGF-E" /><path d="m1216.313 121.512-107.735 38.083c-3.7 1.044-5.48 6.214-3.975 11.549 1.505 5.334 5.724 8.812 9.424 7.768h.001l106.922-22.81-4.638-34.589z" fill="#369B87" id="Us62Vip3mgz7vWLRkAHN" /><path d="m1216.313 121.512-107.735 38.083c-3.7 1.044-5.48 6.214-3.975 11.549 1.505 5.334 5.724 8.812 9.424 7.768h.001l106.922-22.81-4.638-34.589z" fill="url(#linearGradient_6IyHhjes)" id="d8XrnjAwcbDjEn79edfBx" /><ellipse cx="1223.024" cy="137.726" fill="#76D8C2" rx="24.743" ry="35.669" transform="matrix(.96243628 -.27150764 .27150764 .96243628 8.546 337.226)" id="pimWz-z8UDeua-7CPdZMo" /><ellipse cx="1223.024" cy="137.726" fill="url(#radialGradient_3TUZlRQo)" rx="24.743" ry="35.669" transform="matrix(.96243628 -.27150764 .27150764 .96243628 8.546 337.226)" id="Ev5sg-I7zMkxEuRWJGAKp" /><ellipse cx="1223.024" cy="137.726" fill="url(#linearGradient_HxVBHMzD)" rx="24.743" ry="35.669" transform="matrix(.96243628 -.27150764 .27150764 .96243628 8.546 337.226)" id="bu0OwcdSSxys1Olsglnhl" /><path d="m1426.589 121.076-21.31-75.539-187.946 67.811c-.374.069-.746.148-1.115.253-9.243 2.607-13.688 15.522-9.93 28.846 3.759 13.324 14.298 22.012 23.541 19.404.37-.104.729-.231 1.083-.367z" fill="#369B87" id="LAWfqOvSq10l258eaJ4D8" /><path d="m1426.589 121.076-21.31-75.539-187.946 67.811c-.374.069-.746.148-1.115.253-9.243 2.607-13.688 15.522-9.93 28.846 3.759 13.324 14.298 22.012 23.541 19.404.37-.104.729-.231 1.083-.367z" fill="url(#linearGradient_Xf0h4f1y)" id="vT-L3S-MILZFIRQJd14FE" /><ellipse cx="1415.934" cy="83.306" fill="#76D8C2" rx="37.849" ry="54.563" transform="matrix(.96243628 -.27150764 .27150764 .96243628 30.567 387.557)" id="UAZKeMx8zK0PKqvmpCY1Q" /><ellipse cx="1415.934" cy="83.306" fill="url(#radialGradient_gTR6Q0QH)" rx="37.849" ry="54.563" transform="matrix(.96243628 -.27150764 .27150764 .96243628 30.567 387.557)" id="gkxSXL4qFKnx1NVkJ8_uU" /><ellipse cx="1415.934" cy="83.306" fill="url(#linearGradient_uvN1oQF4)" rx="37.849" ry="54.563" transform="matrix(.96243628 -.27150764 .27150764 .96243628 30.567 387.557)" id="pvGIZcZ75QcPe3TLqJ" /><path d="m1504.838 109.878-26.994-95.689-70.867 26.81c-.943.132-1.882.322-2.813.585-15.984 4.509-23.672 26.844-17.172 49.886s24.728 38.067 40.711 33.557c.931-.263 1.83-.591 2.703-.971l74.431-14.178z" fill="#369B87" id="Zmnbf2C8CPb3LJABHmWyB" /><path d="m1504.838 109.878-26.994-95.689-70.867 26.81c-.943.132-1.882.322-2.813.585-15.984 4.509-23.672 26.844-17.172 49.886s24.728 38.067 40.711 33.557c.931-.263 1.83-.591 2.703-.971l74.431-14.178z" fill="url(#linearGradient_QZ-cjz18)" id="hDs00lu9xvZiUOgzStSAL" /><ellipse cx="1491.341" cy="62.034" fill="#76D8C2" rx="43.871" ry="63.244" transform="matrix(.96243628 -.27150764 .27150764 .96243628 39.175 407.231)" id="Ybp93aQOCFxyCREfrk0e" /><ellipse cx="1491.341" cy="62.034" fill="url(#radialGradient_p_-YFJiE)" rx="43.871" ry="63.244" transform="matrix(.96243628 -.27150764 .27150764 .96243628 39.175 407.231)" id="viXmhVJLgb1up1N_4339U" /><ellipse cx="1491.341" cy="62.034" fill="url(#linearGradient_qYHtq9yb)" rx="43.871" ry="63.244" transform="matrix(.96243628 -.27150764 .27150764 .96243628 39.175 407.231)" id="HydUXGfZD0Z76dCYpnt" /><ellipse cx="1491.341" cy="62.034" fill="#002A1C" rx="34.484" ry="49.712" transform="matrix(.96243628 -.27150764 .27150764 .96243628 39.175 407.231)" id="Vc4ww5Z05d9sKRFyOWBy3" /><ellipse cx="1491.341" cy="62.034" fill="url(#linearGradient_ruCnrXVg)" rx="34.484" ry="49.712" transform="matrix(.96243628 -.27150764 .27150764 .96243628 39.175 407.231)" id="POqyJ0s_jkQeZHIvYKRPF" /><path d="m1488.607 24.305c-11.979.184-9.444 5.204-4.437 7.195 8.496 3.379 17.586 11.765 20.862 27.074 1.374 6.422 4.599 4.221 6.131-6.126 1.917-12.952-8.39-28.36-22.556-28.142z" fill="url(#radialGradient_NxAo7LaP)" id="IZnP5lrk-zeUzEuenSY" /><path d="m1305.008 55.594c-37.573-33.119-61.08 7.803-47.648 41.663 12.357 31.15 38.928 11.512 32.469-19.713 0 0 28.71 2.457 15.179-21.949z" fill="#00715F" id="tsLGlYC6bnP67_ZZQUOiC" /><path d="m1305.008 55.594c-37.573-33.119-61.08 7.803-47.648 41.663 12.357 31.15 38.928 11.512 32.469-19.713 0 0 28.71 2.457 15.179-21.949z" fill="url(#linearGradient_1XwAAt2w)" id="giMd2WR5QX5C34eBfkLhG" /><path d="m1273.695 115.008c-7.244 0-13.854-6.076-18.194-17.013-.407-1.027.095-2.189 1.122-2.597 1.029-.408 2.189.095 2.597 1.121 4.271 10.766 10.73 16.022 17.28 14.063 8.207-2.457 14.888-15.632 11.37-32.633-.224-1.082.472-2.14 1.554-2.364 1.083-.227 2.14.472 2.364 1.553 4.029 19.477-4.026 34.248-14.142 37.275-1.331.398-2.651.594-3.951.594z" fill="#00392A" id="uxuwKL-jhIji4j9N6no84" /><path d="m1332.815 42.262c-37.573-33.119-61.08 7.803-47.648 41.663 12.357 31.15 38.928 11.512 32.469-19.713 0 0 28.71 2.457 15.179-21.949z" fill="#00715F" id="EAKyY82yIY194bfYbftak" /><path d="m1332.551 42.262c-37.573-33.119-61.08 7.803-47.648 41.663 12.357 31.15 38.928 11.512 32.469-19.713 0 0 28.71 2.457 15.179-21.949z" fill="url(#linearGradient_zaL0u453)" id="PjEugpm9A5WFsvriR6Wmc" /><path d="m1301.502 101.676c-7.243 0-13.854-6.076-18.193-17.014-5.888-14.841-5.118-32.004 1.961-43.724.571-.945 1.802-1.249 2.746-.678.945.571 1.249 1.8.678 2.746-6.456 10.688-7.11 26.46-1.666 40.181 4.271 10.767 10.737 16.022 17.279 14.063 8.208-2.457 14.889-15.631 11.371-32.633-.224-1.082.472-2.14 1.554-2.364 1.086-.227 2.14.472 2.364 1.553 4.029 19.477-4.026 34.248-14.142 37.275-1.331.398-2.652.594-3.952.594z" fill="#00392A" id="xr2zGKb7WYPoZUKsQ6ll0" /><path d="m1362.814 33.576c-37.573-33.119-61.08 7.803-47.648 41.663 12.357 31.15 38.928 11.512 32.469-19.713 0 0 28.71 2.457 15.179-21.949z" fill="#00715F" id="LwmsF9Cpa2XYZABxC4dds" /><path d="m1362.814 33.576c-37.573-33.119-61.08 7.803-47.648 41.663 12.357 31.15 38.928 11.512 32.469-19.713 0 0 28.71 2.457 15.179-21.949z" fill="url(#linearGradient_cUPrwLqs)" id="ifk6YvHdEf8iHzGj73RSJ" /><path d="m1331.501 92.99c-7.243 0-13.854-6.076-18.193-17.014-6.739-16.988-4.667-36.723 5.04-47.991.721-.837 1.984-.931 2.821-.21s.931 1.984.21 2.82c-8.777 10.188-10.567 28.243-4.353 43.905 4.271 10.767 10.734 16.022 17.279 14.063 8.208-2.457 14.889-15.631 11.371-32.633-.224-1.082.472-2.14 1.554-2.364 1.082-.226 2.14.472 2.364 1.553 4.029 19.477-4.026 34.248-14.142 37.275-1.331.398-2.652.594-3.952.594z" fill="#00392A" id="XdxaFo_0tjg3Z3X7A5fCF" /><path d="m1392.833 28.536c-26.394-34.829-61.594 0-47.648 41.663 10.638 31.778 38.928 11.512 32.469-19.713 0 0 8.925-14.65 15.179-21.949z" fill="#00715F" id="l-EXYVVKdtTUKaaqNAlF7" /><path d="m1392.833 28.536c-26.394-34.829-61.594 0-47.648 41.663 10.638 31.778 38.928 11.512 32.469-19.713 0 0 8.925-14.65 15.179-21.949z" fill="url(#linearGradient_YQJFPEM4)" id="m_7bfo5tQm1_Hn9L1KtA6" /><path d="m1361.519 87.95c-7.244 0-13.854-6.076-18.193-17.014-7.754-19.547-3.901-41.785 8.962-51.727.871-.674 2.13-.515 2.805.359.676.874.515 2.13-.359 2.806-11.316 8.746-14.693 29.429-7.688 47.087 4.27 10.765 10.728 16.021 17.279 14.062 8.207-2.457 14.889-15.632 11.371-32.633-.224-1.082.473-2.14 1.554-2.364 1.085-.228 2.14.472 2.364 1.553 4.028 19.478-4.027 34.248-14.143 37.276-1.33.398-2.651.594-3.951.594z" fill="#00392A" id="QN21uhYREZQTRbkiG7ot6" /><path d="m1349.625 186.495s-33.571 10.212-69.059-15.753c-17.855-13.063-32.094-50.353-23.724-72.523 8.319-22.035 31.693-2.048 52.027 39.919 10.435-14.272 38.525-6.729 51.744 4.594z" fill="#00715F" id="vIetBfBjqf-FLzwHWp7l" /><path d="m1349.625 186.495s-33.571 10.212-69.059-15.753c-17.855-13.063-32.094-50.353-23.724-72.523 8.319-22.035 31.693-2.048 52.027 39.919 10.435-14.272 38.525-6.729 51.744 4.594z" fill="url(#linearGradient_Kw0ervVz)" id="iWc8YH2Mi8GbBTn03jW5e" /><path d="m1360.612 144.732c-.46 0-.923-.158-1.3-.481-7.913-6.778-23.161-13.191-35.804-11.721-5.847.679-10.229 2.962-13.026 6.788-.413.566-1.097.878-1.794.811-.699-.063-1.314-.488-1.62-1.12-14.087-29.074-30.314-48.314-40.387-47.849-3.4.153-6.081 2.766-7.969 7.765-.656 1.738-1.114 3.633-1.359 5.633-.135 1.097-1.14 1.874-2.229 1.741-1.096-.135-1.876-1.132-1.741-2.229.285-2.316.819-4.522 1.588-6.558 3.12-8.264 7.992-10.188 11.53-10.348 11.643-.514 27.954 17.558 42.838 47.397 3.395-3.292 8.071-5.35 13.708-6.005 13.937-1.617 30.098 5.143 38.867 12.656.839.719.937 1.981.218 2.82-.396.461-.956.699-1.52.699z" fill="#00392A" id="GPzRcEPgFDhuC164NHlVA" /><path d="m958.501 590.385c-.396 0-.798-.118-1.147-.363-25.661-18.021-131.272-97.38-132.336-98.18-.884-.664-1.062-1.917-.397-2.8.663-.883 1.919-1.062 2.8-.397 1.063.799 106.624 80.119 132.232 98.104.904.635 1.122 1.882.487 2.786-.39.554-1.009.851-1.639.851z" fill="#004535" id="GK48jHERWbvz6TLgQNuET" /><path d="m888.92 680.246h-.002c-1.104 0-1.998-.895-1.998-1.999 0-.551.083-13.639 7.345-26.909.531-.969 1.745-1.325 2.715-.794.969.53 1.325 1.746.795 2.714-6.752 12.338-6.854 24.866-6.854 24.991-.002 1.103-.897 1.997-2 1.997z" fill="#004535" id="hZUNqxWhsJQkoDYZP-j22" /><path d="m1406.984 210.235c-.84 0-1.621-.533-1.899-1.373-.346-1.049.224-2.18 1.272-2.526l17.318-5.721c1.048-.346 2.18.223 2.526 1.271.346 1.049-.224 2.18-1.272 2.526l-17.318 5.721c-.208.069-.419.102-.627.102z" fill="#004535" id="Z12tN27mBewOzpfOEkMuf" /><path d="m1160.751 344.354c-.179 0-.358-.024-.535-.073l-39.579-10.986c-1.064-.295-1.688-1.398-1.392-2.462.295-1.064 1.398-1.688 2.462-1.392l35.902 9.966c-3.656-10.142-15.262-39.82-32.972-61.542-.698-.856-.57-2.116.286-2.814.856-.696 2.115-.569 2.813.287 22.056 27.052 34.791 66.012 34.917 66.402.226.7.05 1.468-.46 1.999-.383.399-.906.616-1.443.616z" fill="#004535" id="o-cj7zRuOjsySFiMLWSbm" /><path d="m1540.149 1185.655-990.281 318.271-549.868-359.102 943.996-114.328 833.843-457.061z" fill="#004E3E" id="vKnbkcOxUIxt-dtR0NQ4j" /><path d="m1540.149 1185.655-990.281 318.271-549.868-359.102 943.996-114.328 833.843-457.061z" fill="url(#linearGradient_lGfWv4GG)" id="ukvmZYeBEq-mdMWZ4PH2h" /><path d="m549.868 1503.926 394.128-473.43 596.153 155.159z" fill="url(#linearGradient_zOB4ppfv)" id="AImH0QTePVHESASCv6tj0" /><g fill="none" id="CZ6Q44uUza6W_fSnUDWLU"><g clip-path="url(#clipPath__mHho_5O)" id="LmolwuZG3YvbAfSJmA6xP"><g fill="#AFFFFA" opacity=".3" id="A6qLXTaELNXCATMS7sfju"><path d="m156.745 2158.111c-1.003 0-1.868-.752-1.985-1.771l-118.385-1029.018c-.126-1.097.661-2.089 1.758-2.215 1.098-.123 2.089.661 2.215 1.758l118.385 1029.017c.126 1.098-.661 2.089-1.759 2.216-.077.009-.154.013-.23.013z" fill="#AFFFFA" id="GuGwR8FyKN8PuR_lWgaUR" /><path d="m286.009 2143.24c-1.003 0-1.867-.752-1.985-1.771l-118.385-1029.018c-.126-1.097.661-2.089 1.759-2.215 1.094-.129 2.089.661 2.216 1.758l118.385 1029.018c.126 1.098-.661 2.089-1.759 2.216-.077.009-.154.013-.23.013z" fill="#AFFFFA" id="a8qM3wJduXeLdcFnJdP5s" /><path d="m415.274 2128.368c-1.003 0-1.867-.752-1.985-1.771l-118.385-1029.018c-.126-1.097.661-2.089 1.759-2.215 1.081-.124 2.089.66 2.216 1.758l118.385 1029.018c.126 1.098-.661 2.089-1.759 2.216-.077.009-.154.013-.23.013z" fill="#AFFFFA" id="xAgmnBO8WNrR4w4Ctc_7" /><path d="m544.538 2113.496c-1.003 0-1.867-.752-1.985-1.771l-118.385-1029.017c-.126-1.097.661-2.089 1.759-2.215 1.077-.121 2.088.66 2.216 1.758l118.385 1029.017c.126 1.098-.661 2.089-1.759 2.216-.077.009-.154.013-.23.013z" fill="#AFFFFA" id="H-FlRKemF0N_2juTxG3d1" /><path d="m673.802 2098.625c-1.003 0-1.867-.752-1.985-1.771l-118.385-1029.018c-.126-1.097.661-2.089 1.759-2.215 1.093-.131 2.089.661 2.216 1.758l118.385 1029.018c.126 1.098-.661 2.089-1.759 2.216-.077.009-.154.013-.23.013z" fill="#AFFFFA" id="dm9iEtk9nH_WpnulW2lX" /><path d="m803.067 2083.754c-1.003 0-1.867-.752-1.985-1.771l-118.385-1029.018c-.126-1.097.661-2.089 1.759-2.215 1.075-.121 2.089.66 2.216 1.758l118.385 1029.018c.126 1.098-.661 2.089-1.759 2.216-.077.009-.154.013-.23.013z" fill="#AFFFFA" id="UplH8r-YwYrzYToBF_fx" /><path d="m932.331 2068.883c-1.003 0-1.867-.751-1.985-1.771l-118.384-1029.018c-.126-1.097.661-2.089 1.759-2.215 1.098-.133 2.089.661 2.216 1.758l118.384 1029.018c.126 1.097-.661 2.089-1.759 2.215-.077.009-.154.013-.23.013z" fill="#AFFFFA" id="usmnZ2g8pN7QdtEdjGxGX" /><path d="m1061.595 2054.011c-1.003 0-1.867-.751-1.985-1.771l-118.385-1029.018c-.126-1.097.661-2.089 1.759-2.215 1.091-.134 2.089.661 2.216 1.758l118.385 1029.018c.126 1.097-.661 2.089-1.759 2.215-.077.009-.154.013-.23.013z" fill="#AFFFFA" id="oDqG1P8F0QqctLUUBwKm3" /><path d="m1190.86 2039.14c-1.003 0-1.867-.751-1.985-1.771l-118.385-1029.018c-.126-1.097.661-2.089 1.759-2.215 1.098-.135 2.089.661 2.216 1.758l118.385 1029.018c.126 1.097-.661 2.089-1.759 2.215-.077.009-.154.013-.23.013z" fill="#AFFFFA" id="TezKvrCh52b4iUCc032qU" /><path d="m38.066 1126.544c-1.002 0-1.867-.751-1.984-1.771-.126-1.097.661-2.089 1.758-2.215l1034.115-118.971c1.086-.131 2.088.661 2.216 1.758.126 1.097-.661 2.089-1.759 2.215l-1034.115 118.971c-.078.009-.155.013-.231.013z" fill="#AFFFFA" id="Sg_HVwIpypKOckDjl_hpj" /><path d="m52.938 1255.809c-1.002 0-1.867-.751-1.984-1.771-.126-1.097.661-2.089 1.758-2.215l1034.115-118.971c1.087-.132 2.088.661 2.216 1.758.126 1.097-.661 2.089-1.759 2.215l-1034.115 118.971c-.078.009-.155.013-.231.013z" fill="#AFFFFA" id="n2slRr7OwM8MOnQ2V4pxI" /><path d="m67.81 1385.073c-1.002 0-1.867-.751-1.984-1.771-.126-1.097.661-2.089 1.758-2.215l1034.114-118.971c1.083-.126 2.089.66 2.216 1.758.126 1.097-.661 2.089-1.759 2.215l-1034.114 118.971c-.078.009-.154.013-.231.013z" fill="#AFFFFA" id="BvQApCGF_S1_25qJybjfQ" /><path d="m82.681 1514.338c-1.002 0-1.867-.751-1.984-1.771-.126-1.097.661-2.089 1.758-2.215l1034.115-118.971c1.072-.124 2.088.66 2.216 1.758.126 1.097-.661 2.089-1.759 2.215l-1034.115 118.971c-.078.009-.155.013-.231.013z" fill="#AFFFFA" id="cjobUGggLtmCDqwr0zrvg" /></g></g><g clip-path="url(#clipPath_5wsppsD_)" id="IbLlZjsyMePgCkU3ejlRG"><g fill="#AFFFFA" opacity=".3" id="RkC266Nv_hBL7pm4dhLcC"><path d="m812.227 2139.055c-.854 0-1.645-.552-1.91-1.41l-250.174-808.736c-.327-1.055.264-2.175 1.319-2.501 1.048-.326 2.175.263 2.502 1.319l250.175 808.736c.326 1.055-.265 2.175-1.32 2.502-.196.061-.396.09-.592.09z" fill="#AFFFFA" id="txc9npJc5Ee9IBdsomd73" /><path d="m969.018 2112.435c-.85 0-1.639-.547-1.907-1.401l-290.683-925.473c-.331-1.054.255-2.176 1.309-2.507 1.055-.33 2.178.256 2.508 1.309l290.683 925.472c.331 1.054-.255 2.177-1.309 2.508-.2.063-.401.093-.601.093z" fill="#AFFFFA" id="TYOF5qgjwoE25UmzSfB7I" /><path d="m1104.908 2049.964c-.853 0-1.642-.549-1.908-1.406l-307.979-988.96c-.329-1.055.26-2.176 1.314-2.504 1.056-.326 2.176.26 2.504 1.315l307.979 988.96c.329 1.055-.26 2.176-1.314 2.504-.198.062-.398.091-.596.091z" fill="#AFFFFA" id="zxlN77i6e6VYKy6YLaKJL" /><path d="m1251.973 2012.457c-.853 0-1.642-.549-1.908-1.406l-307.978-988.96c-.329-1.055.26-2.176 1.314-2.504 1.055-.327 2.176.26 2.504 1.315l307.978 988.96c.329 1.055-.26 2.176-1.314 2.504-.198.062-.398.091-.596.091z" fill="#AFFFFA" id="NG5P32E0Q-Vi2wwnkLJLv" /><path d="m1387.129 1976.928c-.853 0-1.642-.549-1.908-1.406l-307.979-988.96c-.329-1.055.26-2.176 1.314-2.504 1.055-.327 2.176.26 2.504 1.315l307.979 988.96c.329 1.055-.26 2.176-1.314 2.504-.198.062-.398.091-.596.091z" fill="#AFFFFA" id="a9serP1zCfOzutzS3IR2n" /><path d="m1533.493 1940.607c-.853 0-1.642-.549-1.908-1.406l-307.978-988.96c-.329-1.055.26-2.176 1.314-2.504 1.055-.326 2.176.26 2.504 1.315l307.978 988.96c.329 1.055-.26 2.176-1.314 2.504-.198.062-.398.091-.596.091z" fill="#AFFFFA" id="w44PWw-f3wWNL5E7FyyhN" /><path d="m1675.856 1888.166c-.853 0-1.642-.549-1.908-1.406l-307.978-988.96c-.329-1.055.26-2.176 1.314-2.504s2.176.26 2.504 1.315l307.978 988.96c.329 1.055-.26 2.176-1.314 2.504-.198.062-.398.091-.596.091z" fill="#AFFFFA" id="UydM256aLZT98rEbkj_sz" /><path d="m1795.039 1845.765c-.853 0-1.642-.549-1.908-1.406l-307.978-988.96c-.329-1.055.26-2.176 1.314-2.504 1.056-.328 2.176.26 2.504 1.315l307.978 988.96c.329 1.055-.26 2.176-1.314 2.504-.198.062-.398.091-.596.091z" fill="#AFFFFA" id="qk1MgWIBDp6G6Wp0yb84" /><path d="m492.439 1163.859c-.852 0-1.642-.549-1.908-1.406-.329-1.055.26-2.176 1.314-2.504l993.859-309.503c1.054-.328 2.175.26 2.504 1.315s-.26 2.176-1.314 2.504l-993.859 309.503c-.198.062-.398.091-.596.091z" fill="#AFFFFA" id="rSoDDXkkfahfuCCMO7kKk" /><path d="m535.128 1259.091c-.852 0-1.642-.549-1.908-1.406-.329-1.055.26-2.176 1.314-2.504l993.858-309.503c1.054-.327 2.176.26 2.504 1.315.329 1.055-.26 2.176-1.314 2.504l-993.858 309.503c-.198.062-.398.091-.596.091z" fill="#AFFFFA" id="wVIV5GmAD4urbyE5XEAaP" /><path d="m569.815 1355.324c-.851 0-1.64-.547-1.907-1.402-.33-1.054.256-2.176 1.311-2.507l754.986-236.566c1.05-.327 2.177.256 2.506 1.311.33 1.054-.256 2.176-1.311 2.507l-754.986 236.566c-.198.062-.4.092-.599.092z" fill="#AFFFFA" id="KHKUsy_YPfilxJgLzJzI" /><path d="m585.469 1457.718c-.848 0-1.635-.544-1.905-1.396-.334-1.053.248-2.177 1.301-2.511l943.41-299.539c1.049-.333 2.177.248 2.512 1.301.334 1.053-.248 2.177-1.301 2.511l-943.41 299.539c-.201.064-.405.094-.606.094z" fill="#AFFFFA" id="Ht0mg2luNVXkFqHzvzr_" /><path d="m608.503 1536.556c-.852 0-1.642-.549-1.908-1.406-.329-1.055.26-2.176 1.314-2.504l993.858-309.503c1.055-.328 2.176.26 2.504 1.315.329 1.055-.26 2.176-1.314 2.504l-993.858 309.503c-.198.062-.398.091-.596.091z" fill="#AFFFFA" id="AC9A0hLhV9ELIppnxE1oY" /><path d="m647.191 1660.788c-.852 0-1.642-.549-1.908-1.406-.329-1.055.26-2.176 1.314-2.504l993.858-309.503c1.055-.328 2.176.26 2.504 1.315.329 1.055-.26 2.176-1.314 2.504l-993.858 309.503c-.198.062-.398.091-.596.091z" fill="#AFFFFA" id="e-pBDJtQHZluDq2HRmtwV" /><path d="m685.878 1785.021c-.852 0-1.642-.549-1.908-1.406-.329-1.055.26-2.176 1.314-2.504l993.859-309.503c1.053-.329 2.176.26 2.504 1.315.329 1.055-.26 2.176-1.314 2.504l-993.859 309.503c-.198.062-.398.091-.596.091z" fill="#AFFFFA" id="ReF5M1kBX3rHfnB2zDN7u" /></g></g><g clip-path="url(#clipPath_nse5ajcI)" id="VZ12XY4K-dVYts-t-fKlf"><g fill="#AFFFFA" opacity=".3" id="gIfQyKm4XQVRNDfE6XH"><path d="m1423.933 1939.43c-.714 0-1.403-.382-1.765-1.055l-489.671-912.751c-.521-.973-.156-2.186.817-2.708.976-.524 2.186-.156 2.708.817l489.671 912.751c.521.973.156 2.186-.817 2.708-.301.162-.624.238-.943.238z" fill="#AFFFFA" id="Y46-j5v074G4L8cTd9yAV" /><path d="m1538.592 1877.918c-.714 0-1.403-.382-1.765-1.055l-489.671-912.751c-.521-.973-.156-2.186.817-2.708.974-.523 2.186-.157 2.708.817l489.671 912.751c.521.973.156 2.186-.817 2.708-.301.162-.625.238-.943.238z" fill="#AFFFFA" id="OBkeTTDWCAa8BpIfwExOB" /><path d="m1653.252 1816.406c-.714 0-1.403-.382-1.765-1.055l-489.671-912.751c-.521-.973-.156-2.186.817-2.708.975-.524 2.186-.157 2.708.817l489.671 912.751c.521.973.156 2.186-.817 2.708-.301.162-.624.238-.943.238z" fill="#AFFFFA" id="GyZVbJeNhaSkqk1loLlc" /><path d="m1767.911 1754.894c-.714 0-1.403-.382-1.765-1.055l-489.671-912.751c-.521-.973-.156-2.186.817-2.708s2.186-.157 2.708.817l489.671 912.751c.521.973.156 2.186-.817 2.708-.301.162-.625.238-.943.238z" fill="#AFFFFA" id="Bn0XBWS93bjqwX3hGrlvP" /><path d="m1882.57 1693.382c-.714 0-1.403-.382-1.765-1.055l-489.671-912.751c-.521-.973-.156-2.186.817-2.708.976-.524 2.186-.156 2.708.817l489.671 912.751c.521.973.156 2.186-.817 2.708-.301.162-.624.238-.943.238z" fill="#AFFFFA" id="cS9PTHt-6QhquePzfQaZn" /><path d="m1997.228 1631.87c-.714 0-1.403-.382-1.765-1.055l-489.67-912.751c-.521-.973-.156-2.186.817-2.708.976-.524 2.186-.156 2.708.817l489.67 912.751c.521.973.156 2.186-.817 2.708-.301.162-.625.238-.943.238z" fill="#AFFFFA" id="DS1txFqjP5--N3jv9DRA" /><path d="m2111.887 1570.358c-.714 0-1.403-.382-1.765-1.055l-489.671-912.751c-.521-.973-.156-2.186.817-2.708s2.186-.157 2.708.817l489.671 912.751c.521.973.156 2.186-.817 2.708-.301.162-.625.238-.943.238z" fill="#AFFFFA" id="sjXgJKU3PAaDpCPpIKkZt" /><path d="m2226.546 1508.846c-.714 0-1.403-.382-1.765-1.055l-489.671-912.751c-.521-.973-.156-2.186.817-2.708.976-.523 2.185-.156 2.708.817l489.671 912.751c.521.973.156 2.186-.817 2.708-.301.162-.624.238-.943.238z" fill="#AFFFFA" id="M9b-Q8kGLA9ApPmkCcwF3" /><path d="m933.049 1024.418c-.714 0-1.403-.382-1.765-1.055-.521-.973-.156-2.186.817-2.708l917.272-492.096c.974-.522 2.186-.157 2.708.817.521.973.156 2.186-.817 2.708l-917.272 492.096c-.301.162-.624.238-.943.238z" fill="#AFFFFA" id="opV2MGgpRSbOPH8Vg7m8f" /><path d="m994.562 1142.077c-.714 0-1.403-.382-1.765-1.055-.521-.973-.156-2.186.817-2.708l917.271-492.096c.974-.521 2.186-.156 2.708.817.521.973.156 2.186-.817 2.708l-917.271 492.096c-.301.162-.624.238-.943.238z" fill="#AFFFFA" id="EDDChY_Fe2dRY2GOQzXAx" /><path d="m1056.074 1258.736c-.714 0-1.403-.382-1.765-1.055-.521-.973-.156-2.186.817-2.708l917.272-492.096c.975-.522 2.186-.157 2.708.817.521.973.156 2.186-.817 2.708l-917.272 492.096c-.301.162-.624.238-.943.238z" fill="#AFFFFA" id="WWRgGHowbMyoLJQ-zw9pW" /><path d="m1117.586 1368.395c-.714 0-1.403-.382-1.765-1.055-.521-.973-.156-2.186.817-2.708l917.272-492.096c.974-.523 2.186-.157 2.708.817.521.973.156 2.186-.817 2.708l-917.272 492.096c-.301.162-.624.238-.943.238z" fill="#AFFFFA" id="GUGoO7vBsrOUFTYotFCLi" /><path d="m1179.098 1483.054c-.714 0-1.403-.382-1.765-1.055-.521-.973-.156-2.186.817-2.708l917.272-492.096c.975-.521 2.186-.157 2.708.817.521.973.156 2.186-.817 2.708l-917.272 492.096c-.301.162-.625.238-.943.238z" fill="#AFFFFA" id="dwuyoGOvv81b3FW5VZ25" /><path d="m1240.61 1597.714c-.714 0-1.403-.382-1.765-1.055-.521-.973-.156-2.186.817-2.708l917.272-492.096c.975-.521 2.185-.157 2.708.817.521.973.156 2.186-.817 2.708l-917.272 492.096c-.301.162-.624.238-.943.238z" fill="#AFFFFA" id="bfywQHSoT5urXO2SWTSdA" /><path d="m1302.122 1712.373c-.714 0-1.403-.382-1.765-1.055-.521-.973-.156-2.186.817-2.708l917.272-492.096c.975-.522 2.186-.156 2.708.817.521.973.156 2.186-.817 2.708l-917.272 492.096c-.301.162-.624.238-.943.238z" fill="#AFFFFA" id="pk1COmBCrzzRRXibO0YoL" /><path d="m1363.634 1827.032c-.714 0-1.403-.382-1.765-1.055-.521-.973-.156-2.186.817-2.708l917.272-492.096c.976-.524 2.186-.156 2.708.817.521.973.156 2.186-.817 2.708l-917.272 492.096c-.301.162-.624.238-.943.238z" fill="#AFFFFA" id="k7clHefMksAD_O_p03i-C" /><path d="m1425.146 1941.691c-.714 0-1.403-.382-1.765-1.055-.521-.973-.156-2.186.817-2.708l917.272-492.096c.976-.524 2.186-.156 2.708.817.521.973.156 2.186-.817 2.708l-917.272 492.096c-.301.162-.624.238-.943.238z" fill="#AFFFFA" id="dr4CctU9HxiTDYPKA5nO" /></g></g><g clip-path="url(#clipPath_bBNjuHH1)" id="jOQFVxdby9CS8TBpr7Sl"><g fill="#AFFFFA" opacity=".1" id="qe7SW1lmULkl-NzqxLYp8"><path d="m1163.247 2471.441c-.847 0-1.632-.541-1.904-1.39l-316.355-986.312c-.338-1.052.241-2.178 1.293-2.515 1.053-.342 2.178.242 2.516 1.293l316.355 986.311c.338 1.053-.241 2.179-1.293 2.516-.203.065-.409.097-.611.097z" fill="#AFFFFA" id="Hk2IWuUIzk1rCiyo30GgD" /><path d="m1287.147 2431.7c-.847 0-1.632-.541-1.904-1.39l-316.356-986.312c-.338-1.052.241-2.178 1.293-2.515 1.052-.34 2.178.242 2.516 1.293l316.356 986.311c.338 1.053-.241 2.179-1.294 2.516-.202.065-.408.097-.61.097z" fill="#AFFFFA" id="SzbYPlS-lPJ7UzLXyWLoQ" /><path d="m1411.046 2391.96c-.847 0-1.632-.541-1.904-1.39l-316.355-986.312c-.338-1.052.241-2.178 1.293-2.515 1.052-.342 2.178.242 2.516 1.293l316.355 986.311c.338 1.053-.241 2.179-1.293 2.516-.203.065-.409.097-.611.097z" fill="#AFFFFA" id="PkGcQoSTN3ls9Buuc31lS" /><path d="m1534.945 2352.22c-.846 0-1.631-.541-1.903-1.39l-316.355-986.313c-.338-1.052.241-2.178 1.293-2.515 1.054-.34 2.178.242 2.516 1.293l316.355 986.312c.338 1.053-.241 2.179-1.293 2.516-.203.065-.409.097-.612.097z" fill="#AFFFFA" id="QU0lMLMpjK6peOYjUhA87" /><path d="m226.609 1681.387c-.847 0-1.632-.541-1.904-1.39-.338-1.052.241-2.178 1.293-2.515l991.197-317.923c1.053-.342 2.178.242 2.516 1.293s-.241 2.178-1.293 2.515l-991.197 317.923c-.203.065-.409.096-.611.096z" fill="#AFFFFA" id="tDI0QFs_Md7Igl0zLoy2A" /><path d="m266.349 1805.287c-.847 0-1.632-.541-1.904-1.39-.338-1.052.241-2.178 1.293-2.515l991.198-317.923c1.053-.34 2.178.242 2.516 1.293s-.241 2.178-1.293 2.515l-991.198 317.923c-.203.065-.409.096-.611.096z" fill="#AFFFFA" id="GyOBhqJ-G9s_haByzXGo8" /></g></g><g clip-path="url(#clipPath_uVR2Vf8G)" id="iFTnO8PsZka3viQLbgRl1"><g fill="#AFFFFA" opacity=".1" id="nbYyFmyghGo6D-se5_6f"><path d="m1163.247 2471.441c-.847 0-1.632-.541-1.904-1.39l-316.355-986.312c-.338-1.052.241-2.178 1.293-2.515 1.053-.342 2.178.242 2.516 1.293l316.355 986.311c.338 1.053-.241 2.179-1.293 2.516-.203.065-.409.097-.611.097z" fill="#AFFFFA" id="XAm0Iii5UYjiT8BiWoFiZ" /><path d="m1287.147 2431.7c-.847 0-1.632-.541-1.904-1.39l-316.356-986.312c-.338-1.052.241-2.178 1.293-2.515 1.052-.34 2.178.242 2.516 1.293l316.356 986.311c.338 1.053-.241 2.179-1.294 2.516-.202.065-.408.097-.61.097z" fill="#AFFFFA" id="bNWRIhHdcFxzBQ0xUiX_" /><path d="m1411.046 2391.96c-.847 0-1.632-.541-1.904-1.39l-316.355-986.312c-.338-1.052.241-2.178 1.293-2.515 1.052-.342 2.178.242 2.516 1.293l316.355 986.311c.338 1.053-.241 2.179-1.293 2.516-.203.065-.409.097-.611.097z" fill="#AFFFFA" id="lKAya8jnaGlQ3jJhpfp2u" /><path d="m1534.945 2352.22c-.846 0-1.631-.541-1.903-1.39l-316.355-986.313c-.338-1.052.241-2.178 1.293-2.515 1.054-.34 2.178.242 2.516 1.293l316.355 986.312c.338 1.053-.241 2.179-1.293 2.516-.203.065-.409.097-.612.097z" fill="#AFFFFA" id="mXOvN0KF0NsxGACvDDhwp" /><path d="m226.609 1681.387c-.847 0-1.632-.541-1.904-1.39-.338-1.052.241-2.178 1.293-2.515l991.197-317.923c1.053-.342 2.178.242 2.516 1.293s-.241 2.178-1.293 2.515l-991.197 317.923c-.203.065-.409.096-.611.096z" fill="#AFFFFA" id="fMbde98K3mZuwBK9bfmVm" /><path d="m266.349 1805.287c-.847 0-1.632-.541-1.904-1.39-.338-1.052.241-2.178 1.293-2.515l991.198-317.923c1.053-.34 2.178.242 2.516 1.293s-.241 2.178-1.293 2.515l-991.198 317.923c-.203.065-.409.096-.611.096z" fill="#AFFFFA" id="mZrv1UXLoBmHaIWkP2fTt" /></g></g></g></g></g><g transform="translate(923 1299)" data-asset-index="3"><g clip-path="url(#assetClipPath_A4qv3RPz)" transform="scale(0.9993182877001378 0.9986352919395265)" data-asset-index="3"><linearGradient id="linearGradient_c6p1MnN2" gradientUnits="userSpaceOnUse" x1="1036.289" x2="420.985" y1="-303.439" y2="655.984"><stop offset=".212" stop-color="#CFF5FF" /><stop offset=".606" stop-color="#0FB3E3" /><stop offset="1" stop-color="#0C72C3" stop-opacity="0" /></linearGradient><radialGradient id="radialGradient_18x3ZbD3" cx="955.548" cy="242.742" gradientUnits="userSpaceOnUse" r="113.189"><stop offset="0" stop-color="#0C72C3" id="YB-7uIauv-zmzG4FLX6Xh" /><stop offset="1" stop-color="#0FB3E3" id="sQ6fabhCyuX4YSOelUE2T" stop-opacity="0" /></radialGradient><radialGradient id="radialGradient_ZVeFV89X" cx="1128.271" cy="98.683" gradientUnits="userSpaceOnUse" r="808.203"><stop offset=".25" stop-color="#FFFFFF" id="qYYV7sWPUxmYFV3fSA13x" /><stop offset="1" stop-color="#CFF5FF" id="KcAVG_ugWj7jHrV5IXtb" stop-opacity="0" /></radialGradient><path d="m0 597.195c181.512-52.684 337.234-304.303 474.221-436.812 127.778-123.602 305.939-192.541 480.194-145.532 147.644 39.83 185.362 154.723 185.362 196.085 0 88.086-100.34 194.553-223.66 103.602-32.17 78.696-15.319 184.831-96.511 282.657-81.191 97.826-202.169 107.114-301.769 114.677-121.04 9.192-330.451-40.041-517.838-114.677z" fill="url(#linearGradient_c6p1MnN2)" id="HdhyVtjiNenUNGcuF6f7f" /><path d="m0 597.195c181.512-52.684 337.234-304.303 474.221-436.812 127.778-123.602 305.939-192.541 480.194-145.532 147.644 39.83 185.362 154.723 185.362 196.085 0 88.086-100.34 194.553-223.66 103.602-32.17 78.696-15.319 184.831-96.511 282.657-81.191 97.826-202.169 107.114-301.769 114.677-121.04 9.192-330.451-40.041-517.838-114.677z" fill="url(#radialGradient_18x3ZbD3)" id="W24VS4Kh8TRQGMzqRCxvI" /><path d="m916.117 314.538c33.336 24.586 64.978 34.743 93.428 34.743 76.793 0 130.232-74.07 130.232-138.345 0-41.362-37.718-156.255-185.362-196.085-37.459-10.105-75.075-14.851-112.356-14.851-136.145 0-267.528 63.351-367.838 160.382-136.987 132.51-292.709 384.128-474.221 436.813l142.577-9.224c91.098-64.743 172.883-161.081 247.745-249.264 43.614-51.375 84.809-99.9 123.529-137.356 22.892-22.143 47.54-42.316 73.26-59.959 25.994-17.831 53.213-33.163 80.902-45.573 9.484-4.25 18.998-8.148 28.534-11.705 5.11 11.535 16.651 19.587 30.081 19.587 12.617 0 23.569-7.107 29.086-17.533 7.257 20.904 27.114 35.916 50.488 35.916 29.517 0 53.445-23.928 53.445-53.445 0-3.868-.421-7.637-1.202-11.272 27.467 1.195 54.685 5.383 81.124 12.515 27.932 7.535 52.625 18.732 73.396 33.28 17.043 11.937 31.572 26.196 43.182 42.38 7.979 11.122 13.681 21.896 17.711 31.448-3.75 3.077-6.145 7.745-6.145 12.975 0 4.966 2.17 9.414 5.599 12.485-9.378 4.256-15.903 13.695-15.903 24.665 0 10.25 5.696 19.169 14.094 23.767-2.755 4.965-5.969 9.712-9.557 14.104-5.984-8.063-15.574-13.291-26.387-13.291-2.46 0-4.854.279-7.16.792 1.362-5.453 2.096-11.155 2.096-17.03 0-38.681-31.357-70.038-70.039-70.038-35.231 0-64.775 23.124-74.468 55.727-11.234 37.787 6.638 74.043 30.128 93.389z" fill="url(#radialGradient_ZVeFV89X)" id="rslvpo3TNMD_HOYLw9tvf" /></g></g><g transform="translate(228 166)" data-asset-index="4"><g clip-path="url(#assetClipPath_zQQkEeLc)" transform="scale(0.9990765182285495 0.9980236764352014)" data-asset-index="4"><linearGradient id="linearGradient_RGyR6OQa" gradientTransform="matrix(1 0 0 -1 15473.1 134.947)" gradientUnits="userSpaceOnUse" x1="-15473.1" x2="-14983.649" y1="67.474" y2="67.474"><stop offset=".302" stop-color="#71D2BC" /><stop offset="1" stop-color="#A4FFEE" stop-opacity="0" /></linearGradient><linearGradient id="linearGradient_IGRUycaQ" x1="34.808" x2="468.733" xlink:href="#linearGradient_RGyR6OQa" y1="206.544" y2="206.544" /><path d="m0 0h489.452v134.947h-489.452z" fill="url(#linearGradient_RGyR6OQa)" transform="matrix(-1 -0 0 -1 489.452 134.947)" id="yCq9QCfjpHbL5CMjnBhei" /><path d="m38.808 253.501h-4v-93.915h433.925v4h-429.925z" fill="url(#linearGradient_IGRUycaQ)" id="PPGUauGunqMFWkIlGMF0" /></g></g></svg>