<?xml version='1.0' encoding='utf-8'?>
<svg xmlns="http://www.w3.org/2000/svg" fill="none" viewBox="0 0 1200 800" width="1200" height="800"><defs><clipPath id="assetClipPath_BZrvSY7v"><path d="m0 0 h 171.82698742138365 v 186.93742699115046 h -171.82698742138365 v -186.93742699115046 z" id="path_SilVJdCL" fill="#ffffff" /></clipPath></defs><path id="collage_bg" d="M0 0h1200v800H0z" fill="#ffffff" /><g transform="translate(364 155)" data-asset-index="0"><g clip-path="url(#assetClipPath_BZrvSY7v)" transform="scale(2.601453978261225 2.5998004135523223)" data-asset-index="0"><path d="m73.695 15.544-.278-1.397c-.335-1.683-1.778-2.919-3.492-2.993l-3.716-.159c-1.37-.059-2.73.257-3.934.912l-1.796.978c-5.234 2.849-9.65 6.995-12.823 12.04l-4.947 7.866c-.918 1.46-.624 3.372.69 4.488l.405.344c5.163 4.385 11.67 6.874 18.442 7.054l14.796.393z" fill="#003022" id="a0vtHy0tyhBPIGCFoYnBd" /><path d="m63.184 150.781-18.529-2.26c-6.827-.833-10.37-5.021-13.258-10.663-.294-.574-2.561-1.164-2.798-1.767-1.351-3.427-1.765-7.277-.976-11.18l12.39-61.271c1.287-6.363 5.94-11.519 12.138-13.449l20.449-6.369 31.5 12-11.137 92.045z" fill="#0D816E" id="uRuHdmmqRDw29-0FPo27l" /><path d="m83.231 25.259-.278-1.397c-.335-1.683-1.778-2.919-3.492-2.993l-3.716-.159c-1.37-.059-2.73.257-3.934.912l-1.796.978c-5.234 2.849-9.65 6.995-12.823 12.04l-4.947 7.866c-.918 1.46-.624 3.372.69 4.488l.405.344c5.163 4.385 11.67 6.874 18.442 7.054l1.157.031c7.205.191 12.915-6.033 12.103-13.195z" fill="#003022" id="Mf028oudqXR8S_4txufPV" /><path d="m66.962 28.363v-1.425c0-1.716 1.173-3.21 2.841-3.617l3.614-.881c1.332-.325 2.727-.281 4.036.127l1.953.608c5.69 1.772 10.83 4.976 14.927 9.304l6.388 6.748c1.185 1.252 1.27 3.185.199 4.537l-.33.416c-4.207 5.309-10.103 9.021-16.709 10.52l-14.434 3.275z" fill="#003022" id="Fr7HjSBRgHwFqC_pr4Mfb" /><path d="m138.138 247.372-27.913 11.156-54.343-97.749 16.078-7.251c23.958-7.091 41.1-8.838 48.981 14.872z" fill="#0D816E" id="Vwrdw5rUvf6Ot4sq5xvaZ" /><path d="m51.886 238.386 34.435 12.71 1.033-111.834-17.589 1.313c-24.434 5.218-40.327 11.875-35.921 36.468z" fill="#0D816E" id="NHgBp5dAyJ6OrxUwjmZnH" /><path d="m80.749 335.765 15.963-1.085-3.013-60.338c.199-6.044-.975-12.054-3.433-17.578l-10.461-23.51-27.355-11.671-1.493 31.725c-.233 4.951.456 9.902 2.032 14.601z" fill="#0D816E" id="N4pvdIVJeoPQFcbuZ5XBe" /><path d="m44.725 82.021v31.271l-11.426 24.054-.601 27.426 91.001 13.831-13.426-69.521v-39.69z" fill="#71D2BC" id="taNL4jPzyvOhXgbG_8tLn" /><path d="m12.584 125.792c-2.687 2.686-5.825 5.322-8.883 3.068 0 0-2.022-2.334-2.647-3.152-1.999-2.613-.738-8.477.372-10.118l26.027-41.822 21.034 16.138z" fill="#71D2BC" id="wFNmU2ILrP802jXFDhsx" /><path d="m134.293 131.127 12.617-1.159c1.836-.744 2.688-5.145.938-9.645l-23.242-48.468-22.885 11.75z" fill="#71D2BC" id="USvLSHcxAuf4WsJD2CjE" /><path d="m44.072 57.451 56.049-7.164c8.172-1.045 16.149 3.029 20.094 10.262l5.891 14.466-48.456 25.203-59.594-11.373 10.807-20.783c3.025-5.816 8.707-9.78 15.209-10.611z" fill="#71D2BC" id="vq7hJxaJoEvly38oMPjKr" /><path d="m73.623 4.579s-.278-1.396-.278-1.397c-.67-3.363-4.419-3.259-6.933-3.139-3.796.18-7.663 2.618-10.551 4.834-3.269 2.508-6.084 5.597-8.277 9.085l-4.947 7.866c-.918 1.46-.624 3.372.69 4.488l.405.344c5.163 4.385 11.67 6.874 18.442 7.054l14.796.393z" fill="#003022" id="ruxANBUkEM33ZoyN5EVhP" /><path d="m72.346 6.206s0-1.388 0-1.424c0-1.761 1.23-3.004 2.819-3.612 1.511-.579 4.263-1.3 6.34-1.046 3.396.414 6.912 2.07 9.877 3.722 3.086 1.72 5.906 3.911 8.335 6.477.001.001 6.388 6.748 6.388 6.748 1.185 1.252 1.27 3.185.199 4.537l-.33.416c-4.207 5.309-10.103 9.021-16.709 10.52l-14.434 3.275z" fill="#003022" id="NZkScLoQLQrQsts5St0iL" /><path d="m74.416 16.974v-1.425c0-1.716 1.173-3.21 2.841-3.617l3.614-.881c1.332-.325 2.727-.281 4.036.127l1.953.608c5.69 1.772 10.83 4.976 14.927 9.304l6.388 6.748c1.185 1.252 1.27 3.185.199 4.537l-.33.416c-4.207 5.309-10.103 9.021-16.709 10.52l-14.434 3.275z" fill="#003022" id="zfHBKplXUGmKWHOb6PYJV" /><path d="m63.249 55.048v-17.51h10.121 8.879v14.879l-.2.71c-1.07 3.789-4.417 6.489-8.347 6.731l-1.692.104c-3.632.225-7.059-1.698-8.761-4.914z" fill="#E2D2B3" id="Q8y-0MrSvj09HJICVCr3n" /><path d="m73.504 44.935v8.236l3.743-7.862z" fill="#003022" opacity=".1" id="ozzugHsPcrSmCrrEYjvhy" /><circle cx="85.994" cy="22.567" fill="#003022" r="11.842" id="S2kmvIz6Q86mM74fAcdmY" /><path d="m85.851 20.371c0-6.075-4.925-11-11-11h-2.102-1.872c-6.203 0-11.231 5.028-11.231 11.231v6.738 6.002c0 1.915.734 3.758 2.051 5.148l6.457 6.819h9.189l6.457-6.819c1.317-1.391 2.051-3.233 2.051-5.148v-6.002z" fill="#E2D2B3" id="CoxiUTq3pldGVr3UcK5sj" /><path d="m66.891 16.827h9.888v12.57h-9.888z" fill="#E2D2B3" id="LzA32dgIv-3U_f7lcwEHE" /><path d="m86.556 32.799h-7.394c-.493 0-.893-.4-.893-.893v-7.342c0-.493.4-.893.893-.893h7.394c2.521 0 4.564 2.043 4.564 4.564 0 2.52-2.043 4.564-4.564 4.564z" fill="#E2D2B3" id="t03lYyZ5gjWxljdkpKFJU" /><path d="m60.099 32.955h7.394c.493 0 .893-.4.893-.893v-7.342c0-.493-.4-.893-.893-.893h-7.394c-2.521 0-4.564 2.043-4.564 4.564 0 2.521 2.043 4.564 4.564 4.564z" fill="#E2D2B3" id="poDY8qDbHxrjm1OCm8YIi" /><path d="m62.547 24.161h-4.485l-.101-2.498h4.586z" fill="#339884" id="Im6225Tw4ByEXOJskEYC" /><path d="m87.189 24.161h-4.485l-.101-2.498h4.586z" fill="#339884" id="vDb4G_wdf_K_mrh556-dm" /><path d="m77.996 32.812h-3.743v-9.734z" fill="#003022" opacity=".1" id="ykiu6EDCVsVzEl21yZ89p" /><path d="m70.376 22.663c-.011.112 0 .232 0 .36v4.272c0 .198-.161.36-.36.36h-6.745c-.198 0-.36-.161-.36-.36v-4.632h7.483m.622-1h-9.105v5.632c0 .751.609 1.36 1.36 1.36h6.745c.751 0 1.36-.609 1.36-1.36v-4.272c0-.752.391-1.36-.36-1.36z" fill="#339884" id="EbJFaGXGPPpnP2qeZVref" /><path d="m82.586 22.663v4.632c0 .198-.161.36-.36.36h-6.745c-.198 0-.36-.161-.36-.36v-4.272c0-.127.012-.248 0-.36zm1-1h-9.105c-.751 0-.36.609-.36 1.36v4.272c0 .751.609 1.36 1.36 1.36h6.745c.751 0 1.36-.609 1.36-1.36z" fill="#339884" id="rprqWHZwJxAFHuchYdmCi" /><path d="m77.247 35.219-.722 1.767-3.364.659v-2.466z" fill="#003022" opacity=".1" id="QNdLjuwT_HkvDVw_trYuJ" /><path d="m69.074 35.219.722 1.767 3.365.659v-2.466z" fill="#003022" opacity=".1" id="ag5mbAaNOa9aJgf_I4n4" /><path d="m75.001 24.161h-4.485l-.101-2.498h4.586z" fill="#339884" id="sUAcZSlatz6p85In0ghP6" /><path d="m71.749 8.951 1.306.996c.855.652 1.841 1.108 2.891 1.338 2.655.581 4.751 2.617 5.409 5.254l1.267 5.081c.543 2.178 1.949 4.041 3.894 5.161l5.623 3.238 5.929-5.003-5.373-10.932-12.599-8.707z" fill="#003022" id="KrFRFTUUwPC5gmcbNg7iL" /><path d="m72.588 7.862-1.072 2.534c-.791 1.869-2.049 3.503-3.653 4.745-2.538 1.965-4.169 4.878-4.518 8.069l-.303 2.767c-.381 3.481-2.284 6.615-5.198 8.558l-2.857 1.905-8.662-9.111 6.005-12.219 14.081-9.733z" fill="#003022" id="f3lrfzICP0VkJ2xU1nt-p" /><path d="m163.735 322.397-14.092 6.752-34.4-49.611c-3.446-4.969-5.72-10.655-6.651-16.63l-3.965-25.425 16.649-24.644 13.15 20.611c2.881 4.033 14.552 28.608 15.777 33.411z" fill="#0D816E" id="RNfI_NzDKJZ0K0raISBtC" /><path d="m94.664 320.989 3.622 5.49c2.75 4.167 4.247 9.035 4.316 14.028l.062 4.482h-29.103c-1.022 0-1.828-.872-1.747-1.891l.156-1.969c.168-2.127 1.267-4.071 3.003-5.311 1.899-1.357 3.025-3.547 3.025-5.881v-5.005z" fill="#71D2BC" id="QtL_99mfYKOd5gLyF7y-C" /><path d="m183.285 342.822-.264-.759c-.444-1.276-1.505-2.239-2.819-2.556l-14.258-3.447c-2.702-.653-5.09-2.233-6.749-4.463l-3.277-4.408c-.75-1.008-1.932-1.602-3.188-1.602h-12.97v2.764l-1.676 4.586c-1.091 2.985-1.635 6.143-1.606 9.322l.021 2.325h20.183l.001.001h25.349c.912 0 1.553-.9 1.253-1.763z" fill="#71D2BC" id="oQouAhDvMu6rIUgTd8XPL" /><path d="m136.476 344.216h46.633v3.503h-46.633z" fill="#339884" id="YdbmmqJmEsGEQUqYAjq7s" /><path d="m72.143 344.216h30.519v3.503h-30.519z" fill="#339884" id="aGXnUPUczm9eLdutY9FKc" /><path d="m93.03 265.435 12.103 51.714c.722 3.083.195 6.327-1.464 9.024l-2.22 3.607h-25.872l-8.518-9.002c-1.5-1.586-2.54-3.551-3.006-5.683l-12.226-51.947z" fill="#0D816E" id="ZO5UIvU2kQVJYaKcN71lG" /><path d="m149.286 265.435 14.768 51.437c.931 3.243.454 6.728-1.314 9.601l-2.035 3.307h-25.872l-4.795-2.953c-2.581-1.59-4.465-4.097-5.273-7.019l-15.549-54.422z" fill="#0D816E" id="S6hwSidMWrySETPutMNov" /><path d="m113.98 140.338-6.479-12.142-.147-.524c-6.872-24.514-11.973-43.778-15.04-68.524l-1.101-8.156 9.91-1.337 1.107 8.209c2.967 23.933 7.926 42.744 14.605 66.585l5.967 11.182z" fill="#004A3A" id="GlcJPUYYH_98xLtChUmLN" /><path d="m83.652 79.961h52.625v77.73h-52.625z" fill="#336098" transform="matrix(.9909 .1347 -.1347 .9909 17.0128 -13.7325)" id="GvSCLxBMbtUzt6zvOMf-F" /><path d="m147.67 125.805.042 1.201c.495 2.383-.967 4.738-3.374 5.432l-9.279 3.884c-4.562 1.315-9.342 1.776-14.082 1.358l-29.773-2.624-.359-9.323c-.1-2.6 1.814-4.866 4.467-5.287l24.701-3.923c3.24-.515 6.535-.614 9.802-.297l7.901.768c5.912.574 8.781 3.172 9.954 8.811z" fill="#E2D2B3" id="Z0e64vveBX3NCtjl2JtNS" /><path d="m78.083 120.214c-.158 1.069-.239 2.757.674 2.944l9.794 1.384 2.433-4.646-12.13-.225c-.265-.013-.756.219-.77.528-.001.006-.001.01-.001.015z" fill="#E2D2B3" id="hKxX-gkHvUUpXLh5hOxh" /><path d="m79.131 123.845c-.158 1.069-.239 2.757.674 2.944l9.794 1.384 2.433-4.646-12.13-.225c-.265-.013-.756.219-.77.528-.001.005-.001.01-.001.015z" fill="#E2D2B3" id="f3foBwJoCpb3ECtcyFlQz" /><path d="m79.539 127.438c-.158 1.069-.239 2.757.674 2.944l9.794 1.384 2.433-4.646-12.13-.225c-.265-.013-.756.219-.77.528-.001.005-.001.01-.001.015z" fill="#E2D2B3" id="IfHxzrDvtYi_Oi8WyLDT7" /><path d="m80.315 130.779c-.202.96-.353 2.486.55 2.709l9.718 1.827 2.622-4.07-12.099-.912c-.264-.027-.764.154-.79.434-.001.004-.001.008-.001.012z" fill="#E2D2B3" id="QJeHhVAZu999Wwu3Ktc" /><path d="m87.6 130.978.148-8.167c.034-1.871 1.778-3.24 3.604-2.827l7.235 1.633c1.49.336 2.847 1.103 3.904 2.206l1.759 1.835-3.561 10.132-8.514-.113c-2.55-.035-4.609-2.149-4.575-4.699z" fill="#E2D2B3" id="p0OlhezFf9Dz7ZvMmGkfq" /><ellipse cx="90.399" cy="126.563" fill="#E2D2B3" rx="6.756" ry="7.387" transform="matrix(-.0133 .9999 -.9999 -.0133 218.1527 37.854)" id="HFj_g7iTpTjxVcTYanWSM" /><path d="m35.486 85.748 5.569-5.753c1.063-1.098 2.419-1.867 3.907-2.216l9.118-2.137-1.781 7.123z" fill="#E2D2B3" id="JSTN9GX_UGWXj4RpwM0S6" /><path d="m28.511 135.921 3.145-5.894c12.334-24.684 15.63-44.113 13.365-64.955l-.893-8.209 9.941-1.081.893 8.209c2.49 22.908-3.113 43.011-16.391 69.567l-.061.117-5.25 9.498c-1.928-1.853-3.467-4.065-4.749-7.252z" fill="#004A3A" id="XBjmE3VvDLpzj3tKg2bC" /><g fill="#E2D2B3" id="OQxV-hTGtKvtPaQhRRV7"><path d="m59.261 79.149c.289 1.041.578 2.707-.304 3.005l-9.547 2.584-2.989-4.309 12.009-1.723c.262-.045.777.124.829.429 0 .004.001.009.002.014z" fill="#E2D2B3" id="xyqrKXI8_yq4-QAVGPRc0" /><path d="m58.67 82.881c.289 1.041.578 2.707-.304 3.005l-9.547 2.584-2.989-4.309 12.009-1.723c.262-.045.777.124.829.429.001.005.001.01.002.014z" fill="#E2D2B3" id="urguTIutMjkg9bS47SJD" /><path d="m58.71 86.497c.289 1.041.578 2.707-.304 3.005l-9.547 2.584-2.989-4.309 12.009-1.723c.262-.045.777.124.829.429 0 .005.001.009.002.014z" fill="#E2D2B3" id="f-Nrruh3S_eOqT3-JGA1" /><path d="m58.353 89.909c.32.928.658 2.424-.21 2.756l-9.417 3.015-3.105-3.715 11.893-2.402c.259-.059.777.059.838.333-.001.004-0 .009.001.013z" fill="#E2D2B3" id="mIX3axc3_QiTIlFSB602b" /><path d="m51.148 91.007-1.157-8.086c-.265-1.853-2.165-2.995-3.926-2.36l-6.978 2.516c-1.437.518-2.689 1.447-3.601 2.671l-1.519 2.038 4.787 9.614 8.435-1.165c2.527-.349 4.308-2.702 3.959-5.228z" fill="#E2D2B3" id="mgnSJ6ZG-26ZO4-C7frlD" /><ellipse cx="47.824" cy="86.973" rx="6.756" ry="7.387" transform="matrix(.1369 .9906 -.9906 .1369 127.4337 27.6957)" fill="#E2D2B3" id="QV7R1STTKJpHTqvL-f4Z" /><path d="m43.783 94.752-21.509 27.664c-.511.657-1.219 1.133-2.02 1.358l-7.738 2.173c-1.397.392-2.895-.025-3.888-1.082l-1.978-2.105c-2.576-2.742-2.452-7.049.276-9.639l28.607-27.151z" fill="#E2D2B3" id="hqQShMD8mFyI1LiZlZd5L" /><path d="m4.125 113.242 4.838-6.297c2-2.603 4.334-4.932 6.942-6.927l19.882-15.207c2.135-1.633 5.152-1.422 7.039.492l6.767 6.863-18.434 23.537c-2.935 3.748-6.558 6.901-10.675 9.291l-10.146 5.891c-2.171 1.261-4.946.658-6.398-1.39l-.123-.173c-3.438-4.846-3.313-11.368.308-16.08z" fill="#E2D2B3" id="MByh2fmWw48hqAcJXpBuz" /><path d="m95.273 130.069 10.109.229-2.005-5.067-.036-.423c-.158-1.42-.62-2.762-1.343-3.954-.716-1.198-1.689-2.232-2.868-3.032l.014-.012-12.12-8.538c-.263-.202-.629-.196-.882.015-.029.025-.058.05-.08.075-.522.543-.505 1.405.039 1.926l4.506 5.037c.174.203.298.449.353.717.162.818-.372 1.618-1.197 1.786l-10.422 2.708 1.625 3.44 1.616.216c.791.107 1.569.3 2.321.573l6.935 2.537c.576.21 1.109.504 1.585.869.55.422 1.159.852 1.85.898z" fill="#E2D2B3" id="VKp6qD8yi0hTcfYxxXdQ7" /></g></g></g></svg>